<?xml version="1.0" standalone="no"?>
<!DOCTYPE svg PUBLIC "-//W3C//DTD SVG 1.1//EN" "http://www.w3.org/Graphics/SVG/1.1/DTD/svg11.dtd" >
<svg xmlns="http://www.w3.org/2000/svg" xmlns:xlink="http://www.w3.org/1999/xlink" version="1.1">
<metadata>
Created by FontForge 20201107 at Sat Jan  6 03:43:50 2024
 By 
Copyright 2017 The Brass Mono Project Authors (github.com/fonsecapeter/brass_mono)
</metadata>
<defs>
<font id="BrassMono-Bold" horiz-adv-x="560" vert-adv-y="1000" >
  <font-face 
    font-family="Brass Mono"
    font-weight="700"
    font-stretch="normal"
    units-per-em="1000"
    panose-1="2 0 5 9 0 0 0 0 0 0"
    ascent="745"
    descent="-255"
    x-height="477"
    cap-height="658"
    bbox="1 -215 774 838"
    underline-thickness="0"
    underline-position="0"
    unicode-range="U+000D-25E6"
  />
<missing-glyph vert-adv-y="824" 
d="M372 740q73 0 125.5 -52.5t52.5 -125.5v-455q0 -74 -52.5 -126t-125.5 -52h-184q-73 0 -125.5 52t-52.5 126v455q0 73 52.5 125.5t125.5 52.5h184zM372 640h-184q-6 0 -13 -1l103 -198l103 199h-9zM450 557l-116 -225l116 -224v449zM222 332l-112 216v-432zM372 28
q3 0 7 1l-101 195l-101 -195q6 -1 11 -1h184z" />
    <glyph glyph-name=".notdef" vert-adv-y="824" 
d="M372 740q73 0 125.5 -52.5t52.5 -125.5v-455q0 -74 -52.5 -126t-125.5 -52h-184q-73 0 -125.5 52t-52.5 126v455q0 73 52.5 125.5t125.5 52.5h184zM372 640h-184q-6 0 -13 -1l103 -198l103 199h-9zM450 557l-116 -225l116 -224v449zM222 332l-112 216v-432zM372 28
q3 0 7 1l-101 195l-101 -195q6 -1 11 -1h184z" />
    <glyph glyph-name=".null" horiz-adv-x="0" vert-adv-y="0" 
 />
    <glyph glyph-name="uni000D" unicode="&#xd;" vert-adv-y="800" 
 />
    <glyph glyph-name="space" unicode=" " vert-adv-y="800" 
 />
    <glyph glyph-name="exclamation" unicode="!" vert-adv-y="824" 
d="M279 128q27 0 45.5 -19t18.5 -45.5t-18.5 -45t-45.5 -18.5t-45.5 18.5t-18.5 45t18.5 45.5t45.5 19zM278 659q21 0 35.5 -14.5t14.5 -35.5v-399q0 -20 -14.5 -34.5t-35 -14.5t-35 14.5t-14.5 34.5v399q0 21 14 35.5t35 14.5v0z" />
    <glyph glyph-name="double_quote" unicode="&#x22;" vert-adv-y="824" 
d="M292 638zM292 638q0 28 19.5 46.5t45.5 18.5q27 0 46 -19t19 -46v-147q0 -27 -19 -46t-46 -19t-46 19t-19 46v1v146zM138 638q0 28 19.5 46.5t45.5 18.5q27 0 46 -19t19 -46v-147q0 -27 -19 -46t-46 -19t-46 19t-19 46v1v146z" />
    <glyph glyph-name="hash" unicode="#" vert-adv-y="824" 
d="M215 540h2q21 0 35.5 -14.5t14.5 -35.5q0 -4 -14 -87h97l16 95q3 18 17 30t32 12q21 0 35.5 -14.5t14.5 -35.5q0 -4 -14 -87h25h1q20 0 34.5 -15t14.5 -35.5t-14.5 -35t-34.5 -14.5h-1h-41l-13 -74h30v0q21 0 35.5 -14.5t14.5 -35t-14.5 -35.5t-35.5 -15v0h-46l-16 -95
q-3 -18 -17 -30t-32 -12q-21 0 -35.5 14.5t-14.5 35.5q0 4 14 87h-97l-16 -95q-3 -18 -17 -30t-32 -12q-21 0 -35.5 14.5t-14.5 35.5q0 4 14 87h-25h-1q-20 0 -34.5 15t-14.5 35.5t14.5 35t34.5 14.5h1h41l13 74h-30v0q-21 0 -35.5 14.5t-14.5 35t14.5 35.5t35.5 15v0h46
l16 95q3 17 16 29t31 13zM334 303h-97l-13 -74h97z" />
    <glyph glyph-name="dollar" unicode="$" vert-adv-y="824" 
d="M328 98q14 5 26 13t24.5 29t12.5 49q0 27 -12.5 47.5t-50.5 42.5v-181zM168 498q0 -10 2 -17t16.5 -19.5t42.5 -26.5v141q-19 -7 -32 -17q-29 -24 -29 -61zM229 684q0 22 14.5 36.5t34.5 14.5q21 0 35.5 -15t14.5 -35v-1v-5q36 -8 68.5 -28.5t42.5 -31t15 -17.5
q11 -13 11 -31q0 -20 -15 -34.5t-35 -14.5q-25 0 -40 20q-14 20 -47 33v-184q60 -27 94 -57q68 -58 68 -145q0 -85 -57 -141q-42 -40 -105 -53v-18v-1q0 -20 -14.5 -34.5t-35 -14.5t-35 14.5t-14.5 34.5v1v17q-43 7 -81.5 27.5t-50 31t-17.5 18.5q-12 14 -12 32
q0 21 14.5 35.5t34.5 14.5q25 0 39 -19q3 -3 10 -9.5t24.5 -15.5t38.5 -14v230q-58 25 -89 46q-72 51 -72 127q0 85 67 138q40 32 94 43v5z" />
    <glyph glyph-name="percent" unicode="%" vert-adv-y="824" 
d="M403 292q58 0 89 -28q34 -32 34 -95.5t-35 -95.5q-31 -28 -88 -28t-88 28q-35 31 -35 95q0 38 12 65l-150 -150q-15 -16 -36 -16q-22 0 -37 15t-15 36q0 22 16 37l147 148q-24 -11 -62 -11q-57 0 -88 28q-35 31 -35 95.5t34 95.5q31 28 89 28t89 -28q34 -32 34 -96
q0 -36 -11 -62l1 1l2 2l1 1l2 2l1 1l1 2l2 1l1 1l2 2l1 1l2 2l1 1l1 2l2 1l1 1l2 2l1 1l2 2l1 1l2 2l1 1l1 2l2 1l1 2l2 1l1 1l2 2l1 1l2 2l1 1l2 2l1 1l1 2l2 1l1 2l2 1l1 2l2 1l1 2l2 1l1 1l2 2l1 1l2 2l1 1l2 2l1 1l2 2l1 1l1 2l2 1l1 2l2 1l1 2l2 1l1 2l2 1l1 2l2 1l1 2
l2 1l1 1l2 2l1 1l1 2l2 1l1 2l2 1l1 2l2 1l1 2l2 1l1 1l1 2l2 1l1 2l2 1l1 1l1 2l2 1l1 2l1 1l2 1l1 2l1 1l2 1l1 1l1 2l1 1l2 1l1 1l1 1l1 1l1 2l1 1l2 2q14 14 35 15h1h1q21 0 36 -15t15 -36q0 -22 -15 -37l-137 -137q25 12 64 12zM403 189q-12 0 -19 -1q-2 -6 -2 -20
q0 -12 2 -19q7 -2 19 -2t19 2q2 6 2 19t-2 20q-7 1 -19 1zM155 436q-12 0 -20 -1q-1 -6 -1 -20q0 -12 2 -19q7 -2 19 -2t19 2q2 6 2 19t-2 20q-7 1 -19 1z" />
    <glyph glyph-name="ampersand" unicode="&#x26;" vert-adv-y="824" 
d="M72 504q0 68 44.5 111.5t104.5 43.5q29 0 56 -7.5t43.5 -17.5t30.5 -22.5t19 -18t7 -8.5q8 -13 8 -28q0 -20 -14.5 -35t-34.5 -15q-17 0 -28 8.5t-15 16.5q-2 3 -6.5 8t-22.5 12.5t-43 7.5q-26 0 -37.5 -17.5t-11.5 -38.5q0 -46 44 -101q5 -4 8 -9l151 -179q7 15 11 26
q5 16 18 25.5t29 9.5q21 0 35.5 -14.5t14.5 -35.5q0 -8 -2 -16q-12 -36 -36 -77l66 -79q13 -14 13 -33q0 -20 -15 -35t-35 -15q-24 0 -39 19l-52 61q-66 -63 -146 -63q-81 0 -135 43q-66 52 -66 143q0 107 81 197q-45 68 -45 133zM136 174q0 -43 27.5 -64.5t73.5 -21.5
q43 0 81 40l-138 164q-44 -55 -44 -118zM293 532z" />
    <glyph glyph-name="single_quote" unicode="'" vert-adv-y="824" 
d="M215 638q0 27 19 46t45 19h1q27 0 46 -19t19 -46v-147q0 -27 -19 -46t-46 -19t-46 19t-19 46v1v146z" />
    <glyph glyph-name="l_paren" unicode="(" vert-adv-y="824" 
d="M368 762q20 0 35 -14.5t15 -35.5q0 -32 -30 -45q-3 -1 -11 -6.5t-25 -21t-33 -35.5q-77 -100 -77 -264t77 -265q22 -27 45 -46q3 -3 6.5 -5.5t5.5 -4t4.5 -2.5t3.5 -2t2 -1.5t1.5 -1l0.5 -0.5q30 -13 30 -45q0 -21 -15 -35.5t-35 -14.5q-12 0 -22 5l-17.5 10t-38 30
t-50.5 53q-98 127 -98 325t98 325q23 29 50.5 52.5t38 30t17.5 9.5q10 5 22 5z" />
    <glyph glyph-name="r_paren" unicode=")" vert-adv-y="824" 
d="M192 762v0q12 0 22 -5q7 -3 17.5 -9.5t38 -30t50.5 -52.5q98 -127 98 -325t-98 -325q-23 -29 -50.5 -53t-38 -30l-17.5 -10q-10 -5 -22 -5q-20 0 -35 14.5t-15 35.5q0 32 30 45q3 2 11 7t25 20.5t33 35.5q77 101 77 265t-77 264q-22 28 -45 47l-24 16q-30 13 -30 45
q0 20 14 34.5t34 15.5h0.5h1.5z" />
    <glyph glyph-name="asterisk" unicode="*" vert-adv-y="824" 
d="M230 453q0 22 15 36t35 14q21 0 35.5 -14.5t14.5 -34.5v-64l56 41q14 10 30 10q21 0 35.5 -14.5t14.5 -35.5q0 -25 -21 -40l-80 -59l80 -59q21 -15 21 -40q0 -21 -14.5 -35.5t-35.5 -14.5q-16 0 -30 10l-56 41v-64q0 -20 -14.5 -35t-35.5 -15t-35.5 15t-14.5 35v64
l-56 -41q-14 -10 -30 -10q-21 0 -35.5 14.5t-14.5 35.5q0 25 21 40l81 59l-81 59q-21 14 -21 40q0 21 14.5 35.5t35.5 14.5q17 0 30 -10l56 -41v63z" />
    <glyph glyph-name="plus" unicode="+" vert-adv-y="824" 
d="M229 453q0 22 15 36t35 14q21 0 35.5 -14.5t14.5 -34.5v-112h112q20 0 34.5 -14.5t14.5 -35.5t-14.5 -35.5t-34.5 -14.5h-112v-112q0 -20 -14.5 -35t-35.5 -15t-35.5 15t-14.5 35v112h-112q-20 0 -34.5 14.5t-14.5 35.5t14.5 35.5t34.5 14.5h112v111z" />
    <glyph glyph-name="comma" unicode="," vert-adv-y="824" 
d="M316 115q26 0 45 -19t19 -46q0 -17 -9 -33l-72 -126q-19 -33 -57 -33q-26 0 -45 19t-19 46q0 18 9 33l72 126q19 33 57 33z" />
    <glyph glyph-name="minus" unicode="-" vert-adv-y="824" 
d="M167 242q-20 0 -35 14.5t-15 35.5t15 35.5t35 14.5h226q20 0 35 -14.5t15 -35.5t-15 -35.5t-35 -14.5h-226z" />
    <glyph glyph-name="period" unicode="." vert-adv-y="824" 
d="M380 82q0 -41 -29.5 -70.5t-70.5 -29.5t-70.5 29.5t-29.5 70.5t29.5 70.5t70.5 29.5t70.5 -29.5t29.5 -70.5z" />
    <glyph glyph-name="fwd_slash" unicode="/" vert-adv-y="824" 
d="M390 627q22 0 36 -15t14 -35q0 -10 -4 -19l-222 -544q-6 -14 -18.5 -23t-27.5 -9q-21 0 -35.5 15t-14.5 35q0 10 4 20l222 544q5 13 17.5 22t27.5 9h1z" />
    <glyph glyph-name="zero" unicode="0" vert-adv-y="824" 
d="M375 518q-15 19 -36 25.5t-59 6.5t-59 -7t-36 -26q-41 -50 -41 -201q0 -42 3 -77zM44 316q0 62 6.5 110.5t22.5 91.5t42 71t67.5 44t97.5 16q117 0 172 -68q64 -78 64 -265.5t-63 -265.5q-56 -68 -173 -68t-173 69q-63 78 -63 265zM180 121q15 -24 38.5 -32t61.5 -8t59 7
t36 25q41 50 41 203q0 49 -5 89z" />
    <glyph glyph-name="one" unicode="1" vert-adv-y="824" 
d="M330 86h100q21 0 35.5 -14.5t14.5 -35t-14.5 -35t-35.5 -14.5h-300q-21 0 -35.5 14.5t-14.5 35t14.5 35t35.5 14.5h101v420l-34 -26q-14 -11 -31 -11q-20 0 -35 15t-15 35q0 25 20 40l114 88q13 10 29 10h0.5h1.5q20 0 34.5 -14.5t14.5 -35.5v-521z" />
    <glyph glyph-name="two" unicode="2" vert-adv-y="824" 
d="M279 659q99 0 154.5 -56.5t55.5 -147.5q0 -59 -63 -129q-39 -43 -136.5 -122t-116.5 -105q-3 -5 -4 -8v-5h270q21 0 35.5 -14.5t14.5 -35t-14.5 -35t-35.5 -14.5h-320q-21 0 -35.5 14.5t-14.5 34.5v58q0 40 35 78t119 107q70 56 107 91t53 66q6 13 6 19q0 57 -32 82
q-28 22 -78 22q-52 0 -82 -20q-28 -19 -28 -57v0q0 -21 -15 -35.5t-35.5 -14.5t-35 14.5t-14.5 35.5v0q0 75 54.5 126t154.5 51h1z" />
    <glyph glyph-name="three" unicode="3" vert-adv-y="824" 
d="M398 219q0 23 -4.5 41.5t-17.5 39t-42.5 31.5t-73.5 11q-21 0 -35.5 14.5t-14.5 35.5q0 18 11 31l105 128h-186q-20 0 -35 14.5t-15 35t15 35t35 14.5h291q20 0 35 -14.5t15 -35.5q0 -17 -12 -31l-115 -141q47 -14 80 -45q63 -59 63 -164q0 -104 -57 -169
q-62 -68 -167 -68q-58 0 -102 14t-66.5 35.5t-33 40.5t-10.5 33q0 21 14.5 35.5t34.5 14.5q17 0 30 -9.5t18 -24.5q24 -40 115 -40q61 0 93 36t32 102zM132 106z" />
    <glyph glyph-name="four" unicode="4" vert-adv-y="824" 
d="M427 272h40h1q20 0 34.5 -14.5t14.5 -35t-14.5 -35t-34.5 -14.5h-1h-40v-131q0 -21 -14.5 -35.5t-35.5 -14.5t-35.5 14.5t-14.5 35.5v131h-237q-20 0 -34.5 14.5t-14.5 35.5q0 15 9 28l286 408q15 20 40 21h1q21 0 35.5 -14.5t14.5 -35.5v-358zM327 272v201l-141 -201
h141z" />
    <glyph glyph-name="five" unicode="5" vert-adv-y="824" 
d="M391 204q0 61 -28.5 92.5t-94.5 31.5q-40 0 -63.5 -9.5t-51.5 -32.5q-14 -11 -31 -11q-21 0 -35.5 15t-14.5 35v277q0 21 14.5 35.5t35.5 14.5h262q20 0 34.5 -14.5t14.5 -35t-14.5 -35t-34.5 -14.5h-212v-142q45 17 96 17q104 0 163.5 -59.5t59.5 -164.5
q0 -106 -61 -165q-59 -57 -160 -57q-45 0 -79.5 7.5t-51 15.5t-45.5 25q-25 14 -25 43q0 20 14.5 35t35.5 15q15 0 43 -18q23 -15 41 -19.5t67 -4.5q67 0 94 33t27 90z" />
    <glyph glyph-name="six" unicode="6" vert-adv-y="824" 
d="M398 203q0 61 -25.5 91.5t-93.5 30.5t-93.5 -30.5t-25.5 -91.5q0 -60 25 -91t94 -31t94 31.5t25 90.5zM61 403q0 16 0.5 29t5 40t12 48t24.5 47t39.5 43t59 28.5t82.5 11.5q50 0 89 -10.5t55 -21t34 -26.5l3 -3q19 -15 19 -39q0 -21 -14.5 -35.5t-35.5 -14.5q-15 0 -27 8
t-20.5 17.5t-35 17.5t-67.5 8q-62 0 -90 -29q-34 -34 -34 -119v-4q49 26 119 26q95 0 151 -48q67 -57 67 -174q0 -46 -12 -85t-37 -70t-68 -48.5t-101 -17.5q-94 0 -150 47q-68 57 -68 174v200z" />
    <glyph glyph-name="seven" unicode="7" vert-adv-y="824" 
d="M98 562q-20 0 -34.5 14.5t-14.5 35.5t14.5 35.5t34.5 14.5h362q20 0 34.5 -14.5t14.5 -35.5q0 -11 -4 -21l-273 -570q-13 -29 -45 -29q-21 0 -35.5 14.5t-14.5 35.5q0 12 5 22l239 498h-283z" />
    <glyph glyph-name="eight" unicode="8" vert-adv-y="824" 
d="M279 291q-70 0 -97 -22q-28 -24 -28 -91q0 -54 27 -75q27 -22 92 -22q74 0 103 24q28 22 28 81q0 60 -27 82q-28 23 -98 23zM279.5 552q-56.5 0 -77 -17t-20.5 -70q0 -41 19 -57q21 -17 73 -17q59 0 82 18q20 17 20 63t-19 62q-21 18 -77.5 18zM55 179q0 116 66 169
q-39 45 -39 119q0 98 57 145q48 39 140 39t141 -40q56 -46 56 -139q0 -77 -41 -123q68 -51 68 -163q0 -106 -64 -158q-57 -46 -167 -46q-99 0 -154 44q-63 51 -63 153z" />
    <glyph glyph-name="nine" unicode="9" vert-adv-y="824" 
d="M398 429q0 59 -25 90.5t-94 31.5t-94 -31.5t-25 -90.5q0 -61 25.5 -92t93.5 -31t93.5 31t25.5 92zM61 429q0 46 12 85t37 70t68 48.5t101 17.5q94 0 150 -47q68 -57 68 -174v-200q0 -16 -0.5 -29t-5 -40t-12 -48.5t-24.5 -47t-39.5 -42.5t-59 -28.5t-82.5 -11.5
q-50 0 -89 10.5t-55 21t-34 26.5q-3 2 -3 3q-19 15 -19 39q0 20 14.5 35t35.5 15q15 0 27 -8t20.5 -17.5t35 -17.5t67.5 -8q62 0 90 29q34 34 34 119v4q-49 -26 -119 -26q-95 0 -151 47q-67 58 -67 175z" />
    <glyph glyph-name="colon" unicode=":" vert-adv-y="824" 
d="M380 130.5q0 -41.5 -29.5 -71t-70.5 -29.5t-70.5 29.5t-29.5 71t29.5 70.5t70.5 29t70.5 -29t29.5 -70.5zM380 391q0 -41 -29.5 -70.5t-70.5 -29.5t-70.5 29.5t-29.5 70.5t29.5 70.5t70.5 29.5t70.5 -29.5t29.5 -70.5z" />
    <glyph glyph-name="semicolon" unicode=";" vert-adv-y="824" 
d="M299 154q27 0 46 -19t19 -46q0 -17 -9 -32l-72 -126q-19 -32 -56 -32q-27 0 -46 18.5t-19 45.5q0 18 8 33l73 126q19 32 56 32zM296.5 491q41.5 0 70.5 -29.5t29 -70.5t-29 -70.5t-70.5 -29.5t-70.5 29.5t-29 70.5t29 70.5t70.5 29.5z" />
    <glyph glyph-name="less_than" unicode="&#x3c;" vert-adv-y="824" 
d="M404 579q20 0 35 -14.5t15 -34.5q0 -22 -16 -37l-210 -201l210 -201q16 -15 16 -37q0 -20 -15 -34.5t-35 -14.5q-21 0 -35 14l-62 59t-123.5 118.5l-61.5 59.5q-16 15 -16 36t16 36l247 237q15 14 35 14z" />
    <glyph glyph-name="equals" unicode="=" vert-adv-y="824" 
d="M129 156q-20 0 -34.5 14.5t-14.5 35t14.5 35t34.5 14.5h300q20 0 34.5 -14.5t14.5 -35t-14.5 -35t-34.5 -14.5h-300zM129 329q-20 0 -34.5 14.5t-14.5 35t14.5 35t34.5 14.5h300q20 0 34.5 -14.5t14.5 -35t-14.5 -35t-34.5 -14.5h-300z" />
    <glyph glyph-name="greater_than" unicode="&#x3e;" vert-adv-y="824" 
d="M156 579q20 0 35 -14l247 -237q16 -15 16 -36t-16 -36l-247 -237q-14 -14 -35 -14q-20 0 -35 14.5t-15 34.5q0 22 16 37l210 201l-210 201q-16 15 -16 37q0 20 14.5 34.5t34.5 14.5h1z" />
    <glyph glyph-name="question_mark" unicode="?" vert-adv-y="824" 
d="M259.5 128q26.5 0 45.5 -19t19 -45.5t-19 -45t-45.5 -18.5t-45.5 18.5t-19 45t19 45.5t45.5 19zM185 531zM259 374h0.5h1.5q62 0 86 18q24 19 24 74t-24 74t-88 19q-44 0 -66 -19q-8 -7 -8 -9q-5 -15 -18.5 -24.5t-29.5 -9.5q-20 0 -34.5 14.5t-14.5 35.5q0 18 13 37
t28 32q49 42 130 42h1q97 0 148 -40q62 -48 62 -152q0 -33 -7 -62t-23.5 -57t-50 -46.5t-80.5 -23.5v-53q0 -21 -14.5 -35.5t-35 -14.5t-35 14.5t-14.5 35.5v100q0 21 14.5 35.5t34.5 14.5z" />
    <glyph glyph-name="at" unicode="@" vert-adv-y="824" 
d="M403 244q-1 40 -16.5 56t-52.5 16t-53 -17.5t-16 -63.5q0 -45 15.5 -63t53.5 -18q36 0 51 15t18 49v26zM391 409q-14 55 -39 71t-73 16q-35 0 -53.5 -6.5t-32.5 -24.5q-39 -51 -39 -203q0 -222 80 -253q17 -7 45 -7h84q20 0 35 -14.5t15 -35t-15 -35t-35 -14.5h-84
q-50 0 -94.5 21t-72.5 65q-57 86 -57 273q0 58 4.5 103.5t19 90.5t38.5 74t65 47.5t97 18.5v0q54 0 94 -16.5t64.5 -43.5t39.5 -68t20.5 -85.5t5.5 -101.5v-20v-18v-8q0 -10 -1 -21l-2 -163q0 -21 -15 -35.5t-35.5 -14.5t-35 14.5t-14.5 35.5v13q-29 -10 -66 -10
q-72 0 -116 39q-52 48 -52 142.5t52 141.5q43 39 116 39q31 0 57 -7zM294 581zM287 568z" />
    <glyph glyph-name="cap_a" unicode="A" vert-adv-y="824" 
d="M359 229l-80 229l-79 -229h159zM527 42q0 -21 -15 -35.5t-35 -14.5q-17 0 -30 9.5t-18 24.5l-36 103h-227l-35 -102q-5 -15 -18 -24.5t-30 -9.5q-20 0 -35 15t-15 35q0 9 3 17l196 567q5 15 18 24.5t29 9.5q5 0 11.5 -1t18.5 -9.5t17 -23.5l198 -568q3 -8 3 -17z" />
    <glyph glyph-name="cap_b" unicode="B" vert-adv-y="824" 
d="M437 352q72 -54 72 -159q0 -72 -29 -125q-19 -35 -53 -58t-79 -23h-247q-20 0 -35 14.5t-15 34.5v302v7v7v251q0 21 15 35.5t35 14.5h196q48 0 85 -17.5t58 -48.5q28 -43 28 -116q0 -80 -31 -119zM151 86h197q17 0 26.5 6.5t17.5 22.5q17 31 17 78q0 43 -20 68
q-28 34 -100 34h-1h-1h-136v-209zM289 395q56 0 70 19q10 13 10 57q0 43 -12 61q-14 21 -60 21h-146v-158h136h1h1z" />
    <glyph glyph-name="cap_c" unicode="C" vert-adv-y="824" 
d="M60 317q0 60 5.5 106t20.5 91t40.5 74t67.5 46.5t99 17.5q99 0 155 -49q18 -16 30.5 -37.5t12.5 -37.5q0 -21 -14.5 -35.5t-34.5 -14.5q-18 0 -31.5 11t-17.5 27q-2 4 -10 12q-28 24 -90 24q-38 0 -58 -7t-35 -26q-40 -51 -40 -202t41 -203q15 -19 35 -26t57 -7
q65 0 94 33q12 13 14 24q3 18 17 30t32 12q21 0 35.5 -15t14.5 -35q0 -14 -10.5 -38t-28.5 -45q-59 -65 -168 -65q-58 0 -100 18t-67.5 48t-40.5 75t-20 90.5t-5 103.5zM401 138z" />
    <glyph glyph-name="cap_d" unicode="D" vert-adv-y="824" 
d="M94 657h170q45 0 89 -22t80.5 -62.5t59.5 -106t23 -144.5q0 -161 -66 -248q-33 -43 -81.5 -65t-104.5 -22h-170q-21 0 -35.5 14.5t-14.5 34.5v571q0 21 14.5 35.5t35.5 14.5zM144 86h120q69 0 106 49q46 60 46 187q0 63 -16.5 111.5t-42 74t-49.5 38t-44 12.5h-120v-472z
" />
    <glyph glyph-name="cap_e" unicode="E" vert-adv-y="824" 
d="M409 262q0 -21 -15 -35.5t-35 -14.5h-198v-126h286q20 0 34.5 -14.5t14.5 -35t-14.5 -35t-34.5 -14.5h-336q-20 0 -34.5 14.5t-14.5 34.5v570q0 20 14.5 35t34.5 15h336q20 0 34.5 -15t14.5 -35.5t-14.5 -35t-34.5 -14.5h-286v-245h199q20 0 34.5 -14.5t14.5 -34.5z" />
    <glyph glyph-name="cap_f" unicode="F" vert-adv-y="824" 
d="M409 261q0 -21 -15 -35.5t-35 -14.5h-198v-181q0 -20 -14.5 -34.5t-35 -14.5t-35 14.5t-14.5 34.5v575q0 21 14.5 35.5t34.5 14.5h336q20 0 34.5 -14.5t14.5 -35.5t-14.5 -35.5t-34.5 -14.5h-286v-244h199q20 -1 34.5 -15.5t14.5 -34.5z" />
    <glyph glyph-name="cap_g" unicode="G" vert-adv-y="824" 
d="M49 317q0 60 5 106t20.5 91t40.5 74t67 46.5t99 17.5q108 0 162 -56q45 -48 45 -87q0 -21 -14.5 -33.5t-33.5 -12.5q-15 0 -27 8.5t-17 16t-12 20.5q-8 14 -16 22t-30 15t-57 7q-37 0 -57.5 -7t-35.5 -26q-40 -51 -40 -202t41 -203q15 -19 35.5 -26t56.5 -7q60 0 89.5 26
t36.5 100h-122q-21 0 -35 14.5t-14 35.5t14.5 35t34.5 14h174h1q22 0 35.5 -16t13.5 -37v-3q-2 -41 -4.5 -64t-11.5 -56.5t-24 -58.5q-27 -42 -75.5 -65.5t-112.5 -23.5q-57 0 -99.5 18t-67.5 48t-40 75t-20 90.5t-5 103.5z" />
    <glyph glyph-name="cap_h" unicode="H" vert-adv-y="824" 
d="M45 609q0 22 14.5 36t34.5 14q21 0 35.5 -14.5t14.5 -34.5v-295h272v295q0 20 14.5 34.5t35 14.5t35 -14.5t14.5 -34.5v-338q1 -4 1 -7t-1 -7v-228q0 -20 -14.5 -34.5t-35 -14.5t-35 14.5t-14.5 34.5v185h-272v-185q0 -20 -14.5 -34.5t-35 -14.5t-35 14.5t-14.5 34.5v228
q-1 4 -1 7.5t1 6.5v337z" />
    <glyph glyph-name="cap_i" unicode="I" vert-adv-y="824" 
d="M274 657q4 1 7 1t7 -1h141q21 0 35.5 -14.5t14.5 -35t-14.5 -35t-35.5 -14.5h-98v-471h98q21 0 35.5 -14.5t14.5 -35.5t-14.5 -35.5t-35.5 -14.5h-141h-7h-7h-143q-21 0 -35.5 14.5t-14.5 35.5t14.5 35.5t35.5 14.5h100v471h-100q-21 0 -35.5 14.5t-14.5 35t14.5 35
t35.5 14.5h143z" />
    <glyph glyph-name="cap_j" unicode="J" vert-adv-y="824" 
d="M278 -18q-87 0 -148 58.5t-61 154.5v1q0 21 14.5 35.5t35 14.5t35.5 -14.5t15 -35.5v-1q0 -56 34 -87q30 -27 75 -27q46 0 78 28q35 31 35 86v355h-157q-21 0 -35.5 14.5t-14.5 35t14.5 35t35.5 14.5h207q21 0 35.5 -14.5t14.5 -35.5v-404q0 -95 -62.5 -154t-150.5 -59z
" />
    <glyph glyph-name="cap_k" unicode="K" vert-adv-y="824" 
d="M523 47q0 -20 -14.5 -35t-35.5 -15q-25 0 -40 20l-211 276l-85 -105v-146q0 -21 -14.5 -35.5t-35.5 -14.5t-35.5 14.5t-14.5 35.5v576q0 21 14.5 35.5t35.5 14.5t35.5 -14.5t14.5 -35.5v-272l247 305q15 18 38 19q22 0 36.5 -15t14.5 -35q0 -18 -11 -32l-175 -216
l226 -294q10 -14 10 -31z" />
    <glyph glyph-name="cap_l" unicode="L" vert-adv-y="824" 
d="M57 607q0 21 15 35.5t35.5 14.5t35 -14.5t14.5 -35.5v-521h296q20 0 35 -14.5t15 -35t-15 -35t-35 -14.5h-346q-20 0 -35 14.5t-15 34.5v571z" />
    <glyph glyph-name="cap_m" unicode="M" vert-adv-y="824" 
d="M452 665q21 0 35.5 -14.5t14.5 -35.5v-573q0 -21 -14.5 -35.5t-35 -14.5t-35 14.5t-14.5 35.5v388l-81 -138q-14 -25 -43 -25t-43 25l-81 138v-388q0 -21 -14.5 -35.5t-35 -14.5t-35 14.5t-14.5 35.5v573q0 21 14.5 35.5t35.5 14.5q28 0 43 -25l130 -224l130 224
q14 24 42 25h1z" />
    <glyph glyph-name="cap_n" unicode="N" vert-adv-y="824" 
d="M391 613q0 22 15 36t35 14q21 0 35.5 -14.5t14.5 -35.5v0v-571q0 -20 -14.5 -34.5t-35.5 -14.5q-29 0 -43 25l-229 405v-381q0 -21 -14.5 -35.5t-35.5 -14.5t-35.5 14.5t-14.5 35.5v571q0 21 14.5 35.5t35.5 14.5q29 0 43 -26l229 -405v381z" />
    <glyph glyph-name="cap_o" unicode="O" vert-adv-y="824" 
d="M280 550q-38 0 -59 -7t-36 -26q-41 -50 -41 -201.5t41 -201.5q15 -19 36 -26t59 -7t59 7t36 25q41 50 41 202.5t-41 202.5q-15 18 -36 25t-59 7zM44 316q0 62 6.5 110.5t22.5 91.5t42 71t67.5 44t97.5 16q117 0 172 -68q64 -78 64 -265.5t-63 -265.5q-56 -68 -173 -68
t-173 69q-63 78 -63 265z" />
    <glyph glyph-name="cap_p" unicode="P" vert-adv-y="824" 
d="M312 668q78 0 132 -65.5t54 -163.5q0 -97 -54 -162.5t-132 -66.5h-150v-168q0 -21 -14.5 -35.5t-35 -14.5t-35 14.5t-14.5 35.5v211q-1 3 -1 6.5t1 7.5v352q0 20 14.5 34.5t35.5 14.5h199zM398 439q0 59 -28 97q-24 33 -58 33h-150v-259h150q38 0 62 39.5t24 89.5z" />
    <glyph glyph-name="cap_q" unicode="Q" vert-adv-y="824" 
d="M279 556q-38 0 -59 -7t-36 -26q-42 -51 -42 -202t41 -202q15 -18 36.5 -25t59.5 -7q36 0 56 6q9 6 19 8q11 7 20 18q41 50 41 202.5t-41 202.5q-15 18 -36 25t-59 7zM43 321q0 63 6 111.5t22 91.5t42.5 71t68 44t97.5 16q116 0 172 -68q63 -78 63 -266q0 -201 -72 -276
l58 -59q15 -15 15 -35.5t-14.5 -35.5t-35.5 -15t-36 16l-78 79q-33 -8 -72 -8q-117 0 -173 70q-63 78 -63 264z" />
    <glyph glyph-name="cap_r" unicode="R" vert-adv-y="824" 
d="M305 668q80 0 136.5 -62t56.5 -167q0 -100 -54 -163q-25 -30 -59 -47l104 -159q9 -13 9 -28q0 -21 -14.5 -35.5t-35.5 -14.5q-27 0 -42 23l-128 195h-116v-168q0 -21 -14.5 -35.5t-35 -14.5t-35 14.5t-14.5 35.5v211q-1 3 -1 6.5t1 6.5v353q0 20 14.5 34.5t34.5 14.5h193
zM309 310q41 2 65 38t24 91q0 64 -30 100q-25 30 -63 30h-143v-260l143 1h4z" />
    <glyph glyph-name="cap_s" unicode="S" vert-adv-y="824" 
d="M156 126q4 -4 13 -12.5t39.5 -20.5t67.5 -12q58 0 88 29q27 25 27 67q0 25 -7 37t-22 23q-25 18 -105 40q-80 21 -116 45q-33 21 -53 56.5t-20 80.5q0 84 63 141.5t149 57.5q31 0 60.5 -8.5t48 -19t35.5 -24t22 -19t8 -9.5q11 -14 11 -31q0 -21 -15 -35.5t-35 -14.5
q-25 0 -40 20q-3 4 -11 11.5t-32 18.5t-52 11q-47 0 -79.5 -29.5t-32.5 -69.5q0 -22 6 -32.5t21 -21.5q23 -14 101 -36q84 -23 123 -50q32 -23 51.5 -59.5t19.5 -82.5q0 -84 -57.5 -139.5t-156.5 -55.5q-35 0 -68.5 8.5t-54.5 19t-40 24.5t-24.5 19.5t-8.5 9.5
q-12 14 -12 32q0 21 14.5 35.5t34.5 14.5q25 0 39 -19z" />
    <glyph glyph-name="cap_t" unicode="T" vert-adv-y="824" 
d="M274 660q4 1 7 1q4 0 7 -1h168q21 0 35.5 -14.5t14.5 -35t-14.5 -35t-35.5 -14.5h-125v-519q0 -21 -14.5 -35.5t-35.5 -14.5t-35.5 14.5t-14.5 35.5v519h-127q-21 0 -35.5 14.5t-14.5 35t14.5 35t35.5 14.5h170z" />
    <glyph glyph-name="cap_u" unicode="U" vert-adv-y="824" 
d="M63 602q0 21 14.5 35.5t35.5 14.5q20 0 34.5 -14.5t14.5 -35.5v-390q0 -77 28 -105q25 -26 89 -26t89 25q28 28 28 106v390q0 21 14.5 35.5t35 14.5t35 -14.5t14.5 -35.5v-390q0 -119 -56 -176q-54 -54 -160 -54q-216 0 -216 230v390z" />
    <glyph glyph-name="cap_v" unicode="V" vert-adv-y="824" 
d="M477 663q21 0 35.5 -15t14.5 -35q0 -9 -3 -17l-198 -570q-5 -15 -18 -24.5t-29 -9.5t-29 9.5t-18 24.5l-198 570q-3 8 -3 17q0 20 14.5 35t35.5 15q16 0 29 -9.5t18 -24.5l151 -435l151 435q5 15 18 24.5t29 9.5z" />
    <glyph glyph-name="cap_w" unicode="W" vert-adv-y="824" 
d="M91 37q-59 575 -59 577q0 21 14.5 35.5t35.5 14.5q19 0 33.5 -13t16.5 -32l36 -350l65 186q5 14 18 23.5t29 9.5t29 -9.5t18 -23.5l65 -186l36 350q2 19 16.5 32t33.5 13q21 0 35.5 -14.5t14.5 -35.5q0 -2 -59 -577q-2 -19 -16.5 -32t-33.5 -13q-16 0 -29 9.5t-18 23.5
l-92 263l-92 -263q-5 -14 -18 -23.5t-29 -9.5q-19 0 -33.5 13t-16.5 32z" />
    <glyph glyph-name="cap_x" unicode="X" vert-adv-y="824" 
d="M43 614q0 21 15 35.5t35 14.5q28 0 42 -23l145 -222l145 222q14 23 42 23q20 0 35 -14.5t15 -35.5q0 -15 -9 -28l-169 -258l169 -258q9 -13 9 -28q0 -21 -15 -35.5t-35 -14.5q-28 0 -42 23l-145 222l-145 -222q-14 -23 -42 -23q-20 0 -35 14.5t-15 35.5q0 15 9 28
l169 258l-169 258q-9 13 -9 28z" />
    <glyph glyph-name="cap_y" unicode="Y" vert-adv-y="824" 
d="M31 616q0 21 14.5 35.5t35.5 14.5q28 0 42 -24l157 -251l157 251q14 24 42 24q21 0 35.5 -14.5t14.5 -35.5q0 -14 -8 -27l-191 -306v-241q0 -21 -14.5 -35.5t-35.5 -14.5t-35.5 14.5t-14.5 35.5v241l-191 306q-8 13 -8 27z" />
    <glyph glyph-name="cap_z" unicode="Z" vert-adv-y="824" 
d="M94 556q-21 0 -35.5 14.5t-14.5 35t14.5 35t35.5 14.5h370q21 0 35.5 -14.5t14.5 -35.5q0 -14 -8 -27l-320 -492h278q21 0 35.5 -14.5t14.5 -35t-14.5 -35t-35.5 -14.5h-370q-21 0 -35.5 14.5t-14.5 34.5q0 15 8 28l320 492h-278z" />
    <glyph glyph-name="l_square_bracket" unicode="[" vert-adv-y="824" 
d="M223 748h112q21 0 35.5 -14.5t14.5 -35t-14.5 -35t-35.5 -14.5h-63v-618h63q21 0 35.5 -14.5t14.5 -35.5t-14.5 -35.5t-35.5 -14.5h-112q-21 0 -35.5 14.5t-14.5 35.5v717q0 21 14.5 35.5t35.5 14.5z" />
    <glyph glyph-name="bwd_slash" unicode="\" vert-adv-y="824" 
d="M118 577q0 21 14.5 35.5t35.5 14.5q15 0 27.5 -8.5t18.5 -22.5l222 -544q4 -10 4 -20q0 -20 -14.5 -35t-35.5 -15q-15 0 -27.5 9t-18.5 23l-222 544q-4 9 -4 19z" />
    <glyph glyph-name="r_square_bracket" unicode="]" vert-adv-y="824" 
d="M223 649q-21 0 -35.5 14.5t-14.5 35t14.5 35t35.5 14.5h113q20 0 34.5 -14.5t14.5 -35.5v-717q0 -21 -14.5 -35.5t-35.5 -14.5h-112q-21 0 -35.5 14.5t-14.5 35.5t14.5 35.5t35.5 14.5h63v618h-63z" />
    <glyph glyph-name="caret" unicode="^" vert-adv-y="824" 
d="M434 461q0 -21 -15 -35.5t-35 -14.5q-27 0 -42 22l-62 92l-62 -92q-15 -22 -42 -22q-20 0 -35 14.5t-15 35.5q0 15 9 28l104 152q15 22 41 22t41 -22l104 -152q9 -13 9 -28z" />
    <glyph glyph-name="underscore" unicode="_" vert-adv-y="824" 
d="M106 -98q-20 0 -34.5 14.5t-14.5 35t14.5 35.5t34.5 15h346q20 0 34.5 -15t14.5 -35.5t-14.5 -35t-34.5 -14.5h-346z" />
    <glyph glyph-name="backtick" unicode="`" vert-adv-y="824" 
d="M226 720q26 0 45 -18l105 -100q21 -19 21 -47q0 -27 -19 -46t-46 -19q-26 0 -45 18l-105 100q-21 19 -21 47q0 27 18 45.5t45 19.5h2z" />
    <glyph glyph-name="low_a" unicode="a" vert-adv-y="824" 
d="M259 85q37 0 58.5 9.5t41.5 30.5v72q-41 22 -100 22q-51 0 -83 -18q-15 -8 -21.5 -18t-6.5 -28q0 -20 6.5 -31t21.5 -20q31 -19 83 -19zM49 155q0 68 53.5 116t156.5 48q55 0 100 -15v15q0 25 -22 41q-28 20 -69 20q-35 0 -65 -8l-30 -12q-11 -6 -25 -6q-21 0 -35.5 14.5
t-14.5 34.5q0 30 26 44q7 4 19.5 9.5t49.5 14.5t75 9q82 0 136.5 -46.5t54.5 -114.5v-198l41 -61q9 -13 9 -29q0 -20 -14.5 -35t-35.5 -15q-27 0 -41 23l-18 26q-62 -45 -141 -45q-81 0 -136 35q-33 20 -53.5 55.5t-20.5 79.5z" />
    <glyph glyph-name="low_b" unicode="b" vert-adv-y="824" 
d="M397 229q0 47 -9.5 78.5t-27 45.5t-34.5 19.5t-41 5.5t-41 -5.5t-34.5 -19.5t-26.5 -45.5t-9 -78.5t9 -78.5t26.5 -45.5t34.5 -19t41 -5t41 5t34.5 19.5t27 45.5t9.5 78zM62 599q0 22 14.5 36t35.5 14q20 0 34.5 -14.5t14.5 -34.5v-158q50 35 124 35q27 0 51.5 -4.5
t55 -20t52.5 -41t37 -72.5t15 -110q0 -129 -63 -192q-54 -55 -148 -55q-78 0 -130 38q-14 -26 -43 -26q-21 0 -35.5 15t-14.5 35v555z" />
    <glyph glyph-name="low_c" unicode="c" vert-adv-y="824" 
d="M185 229q0 -47 9 -78t26.5 -45.5t35 -19.5t40.5 -5q56 0 82 31q15 18 38 18q21 0 35.5 -14.5t14.5 -35.5q0 -18 -12 -32q-55 -66 -158 -66q-14 0 -27.5 1t-35.5 6.5t-40.5 15t-39 28t-35 44t-23.5 65t-9 87.5q0 130 63 194q54 54 147 54q112 0 167 -77q9 -13 9 -29
q0 -21 -14.5 -35.5t-34.5 -14.5q-26 0 -41 21q-25 36 -86 36q-24 0 -41 -5t-34.5 -19.5t-26.5 -45.5t-9 -79z" />
    <glyph glyph-name="low_d" unicode="d" vert-adv-y="824" 
d="M384 229q0 47 -9 78.5t-26.5 45.5t-34.5 19.5t-41 5.5t-41 -5.5t-34.5 -19.5t-27 -45.5t-9.5 -78.5t9.5 -78t27 -45.5t34.5 -19.5t41 -5t41 5t34.5 19t26.5 45.5t9 78.5zM397 599q0 22 14.5 36t34.5 14q21 0 35.5 -14.5t14.5 -34.5v-556q0 -20 -14.5 -35t-35.5 -15
q-29 0 -43 26q-23 -16 -69 -27.5t-61 -11.5h-1q-30 0 -57.5 6.5t-56 23.5t-49.5 43.5t-34 71.5t-13 103q0 129 63 193q55 55 148 55q74 0 124 -35v157z" />
    <glyph glyph-name="low_e" unicode="e" vert-adv-y="824" 
d="M388 278q-9 57 -35.5 78.5t-71.5 21.5q-47 0 -73.5 -21.5t-34.5 -78.5h215zM173 179q8 -55 34.5 -76.5t72.5 -21.5q52 0 77 26q15 15 36 15t35.5 -14.5t14.5 -35.5t-15 -36q-55 -54 -148 -54q-23 0 -44 3t-53 17t-55 37.5t-40 70.5t-18 110q-1 4 -1 8.5t1 8.5
q2 124 63 185q54 55 147 55q15 0 29.5 -1.5t36.5 -7t40.5 -15t38.5 -28.5t34 -44.5t23 -64.5t9 -87q0 -21 -14.5 -35.5t-35.5 -14.5h-268z" />
    <glyph glyph-name="low_f" unicode="f" vert-adv-y="824" 
d="M206 500q5 77 47.5 124.5t100.5 47.5q63 0 113 -33q24 -14 24 -42q0 -21 -14.5 -35.5t-35.5 -14.5q-14 0 -27 8q-32 18 -60 18q-17 0 -30 -20q-14 -21 -18 -53h112q20 0 34.5 -15t14.5 -35.5t-14.5 -35t-34.5 -14.5h-113v-358q0 -21 -14.5 -35.5t-35 -14.5t-35.5 14.5
t-15 35.5v358h-86q-21 0 -35.5 14.5t-14.5 35t14.5 35.5t35.5 15h87z" />
    <glyph glyph-name="low_g" unicode="g" vert-adv-y="824" 
d="M277 45q-55 0 -80 -14q-11 -6 -14.5 -11.5t-3.5 -20.5t3.5 -20.5t14.5 -10.5q26 -14 80 -14t80 14q11 6 14.5 11.5t3.5 20t-3.5 20t-14.5 11.5q-25 14 -80 14zM277 378q-52 0 -75 -17q-7 -5 -11.5 -9.5t-8 -17t-3.5 -30.5q0 -26 6 -38t17 -19q24 -17 75 -17q78 0 93 38
q5 13 5 36q0 18 -3.5 30t-7.5 17t-12 10q-23 17 -75 17zM89 151q0 26 20 51q-30 43 -30 102q0 46 17.5 82t49.5 58q49 33 131 33h154q21 0 35.5 -14.5t14.5 -35.5q0 -27 -23 -42q17 -36 17 -81q0 -15 -2 -30t-9.5 -37t-20.5 -40t-37.5 -34.5t-57.5 -24.5q31 -6 56 -19
q31 -17 51 -48.5t20 -71t-20 -71.5t-52 -48q-47 -25 -126 -25t-126 24q-32 17 -52 49t-20 71q0 53 35 92q-25 24 -25 60z" />
    <glyph glyph-name="low_h" unicode="h" vert-adv-y="824" 
d="M75 607q0 21 15 35.5t35 14.5q21 0 35.5 -14.5t14.5 -35.5v-143q47 25 105 25q92 0 148.5 -55.5t56.5 -145.5v-246q0 -21 -15 -35.5t-35.5 -14.5t-35 14.5t-14.5 35.5v246q0 52 -29 77q-27 24 -76 24q-47 0 -76 -25q-29 -27 -29 -76v-246q0 -21 -14.5 -35.5t-35 -14.5
t-35.5 14.5t-15 35.5v565z" />
    <glyph glyph-name="low_i" unicode="i" vert-adv-y="824" 
d="M274.5 634q26.5 0 45 -19t18.5 -45.5t-18.5 -45.5t-45 -19t-45.5 19t-19 45.5t19 45.5t45.5 19zM174 384q-20 0 -34.5 14.5t-14.5 35t14.5 35t34.5 14.5h114q20 0 34.5 -14.5t14.5 -34.5v-348h72q21 0 35.5 -14.5t14.5 -35t-14.5 -35t-35.5 -14.5h-258q-21 0 -35.5 14.5
t-14.5 35t14.5 35t35.5 14.5h87v298h-64z" />
    <glyph glyph-name="low_j" unicode="j" vert-adv-y="824" 
d="M371 633q27 0 45.5 -19t18.5 -45.5t-18.5 -45.5t-45.5 -19t-45.5 19t-18.5 45.5t18.5 45.5t45.5 19zM277 -39q23 0 40 14t17 52v356h-64q-20 0 -35 14.5t-15 35t15 35t35 14.5h113q21 0 35.5 -14.5t14.5 -34.5v-406q0 -76 -44.5 -121t-111.5 -45q-68 0 -111 47.5
t-43 118.5q0 21 14.5 35.5t35 14.5t35 -14.5t14.5 -35.5q1 -66 55 -66z" />
    <glyph glyph-name="low_k" unicode="k" vert-adv-y="824" 
d="M80 613q0 22 15 36t35 14q21 0 35.5 -14.5t14.5 -34.5v-287l164 151q14 14 34 14q21 0 35.5 -15t14.5 -35q0 -22 -17 -37l-104 -96l162 -238q9 -13 9 -29q0 -21 -14.5 -35.5t-34.5 -14.5q-27 0 -42 22l-154 226l-53 -49v-149q0 -21 -14.5 -35.5t-35 -14.5t-35.5 14.5
t-15 35.5v161v9.5v9.5v391z" />
    <glyph glyph-name="low_l" unicode="l" vert-adv-y="824" 
d="M170 557q-21 0 -35.5 15t-14.5 35.5t14.5 35t35.5 14.5h111q20 0 34.5 -14.5t14.5 -35.5v-521h100q21 0 35.5 -14.5t14.5 -35t-14.5 -35t-35.5 -14.5h-300q-21 0 -35.5 14.5t-14.5 35t14.5 35t35.5 14.5h101v471h-61z" />
    <glyph glyph-name="low_m" unicode="m" vert-adv-y="824" 
d="M31 427q0 21 15 35.5t35 14.5q22 0 37 -17q33 17 69 17q61 0 101 -35q38 35 96 35q25 0 48.5 -8t46 -25.5t35.5 -52.5t13 -83v-278q0 -21 -14.5 -35.5t-35 -14.5t-35 14.5t-14.5 35.5v278q0 44 -15 60q-8 9 -29 9t-30 -10q-14 -16 -14 -59v-278q0 -21 -14.5 -35.5
t-35 -14.5t-35.5 14.5t-15 35.5v278q0 40 -13 54.5t-40 14.5q-57 0 -57 -69v-278q0 -21 -14.5 -35.5t-35 -14.5t-35 14.5t-14.5 35.5v397z" />
    <glyph glyph-name="low_n" unicode="n" vert-adv-y="824" 
d="M75 427q0 21 15 35.5t35 14.5q32 0 45 -28q49 28 110 28q92 0 148.5 -55.5t56.5 -146.5v-245q0 -21 -15 -35.5t-35.5 -14.5t-35 14.5t-14.5 35.5v245q0 52 -29 78q-27 24 -76 24q-47 0 -76 -26t-29 -76v-245q0 -21 -14.5 -35.5t-35 -14.5t-35.5 14.5t-15 35.5v397z" />
    <glyph glyph-name="low_o" unicode="o" vert-adv-y="824" 
d="M391 229q0 48 -9 79t-26.5 45.5t-34.5 19.5t-41 5t-41 -5t-34.5 -19.5t-26.5 -45.5t-9 -79q0 -47 9 -78t26.5 -45.5t34.5 -19.5t41 -5t41 5t34.5 19.5t26.5 45.5t9 78zM280 -18q-14 0 -27.5 1t-36 6.5t-41 15t-39 28t-34.5 44t-23.5 65t-9.5 87.5q0 130 63 194
q54 54 148 54q27 0 52 -4.5t55 -20.5t52 -41.5t37 -72.5t15 -109q0 -129 -64 -192q-54 -55 -147 -55z" />
    <glyph glyph-name="low_p" unicode="p" vert-adv-y="824" 
d="M397 229q0 48 -9.5 79t-27 45.5t-34.5 19.5t-41 5t-41 -5t-34.5 -19.5t-26.5 -45.5t-9 -79q0 -47 9 -78t26.5 -45.5t34.5 -19.5t41 -5t41 5t34.5 19.5t27 45.5t9.5 78zM285 477q27 0 52 -4.5t55.5 -20.5t52 -41.5t36.5 -72.5t15 -109q0 -129 -63 -192q-55 -55 -148 -55
q-74 0 -124 34v-113q0 -20 -14.5 -34.5t-35 -14.5t-35 14.5t-14.5 34.5v511q0 21 14.5 35.5t35.5 14.5q29 0 43 -26q52 39 130 39z" />
    <glyph glyph-name="low_q" unicode="q" vert-adv-y="824" 
d="M384 229q0 48 -9 79t-26.5 45.5t-34.5 19.5t-41 5t-41 -5t-34.5 -19.5t-27 -45.5t-9.5 -79q0 -47 9.5 -78t27 -45.5t34.5 -19.5t41 -5t41 5t34.5 19.5t26.5 45.5t9 78zM273 -18q-27 0 -51.5 4.5t-55 20t-52.5 41t-37 72.5t-15 109q0 130 63 193q54 55 148 55
q78 0 130 -39q14 26 43 26q21 0 35.5 -14.5t14.5 -35.5v-511q0 -20 -14.5 -34.5t-35 -14.5t-35 14.5t-14.5 34.5v113q-22 -15 -66 -25t-58 -10v1z" />
    <glyph glyph-name="low_r" unicode="r" vert-adv-y="824" 
d="M75 427q0 21 15 35.5t35 14.5q32 0 45 -28q49 28 110 28q92 0 148.5 -45.5t56.5 -111.5v0q0 -21 -15 -35.5t-35.5 -14.5t-35 14.5t-14.5 35.5v0q0 22 -23 37q-31 20 -82 20q-47 0 -76 -26t-29 -76v-245q0 -21 -14.5 -35.5t-35 -14.5t-35.5 14.5t-15 35.5v397z" />
    <glyph glyph-name="low_s" unicode="s" vert-adv-y="824" 
d="M286 477q103 0 152 -37q20 -15 20 -40q0 -20 -14.5 -34.5t-35.5 -14.5q-17 0 -31 11q-29 16 -91 16q-58 0 -83 -14q-10 -5 -12.5 -9.5t-2.5 -18.5v-3q0 -5 18 -13q20 -10 95.5 -26.5t110.5 -34.5q31 -16 52 -45t21 -66q0 -82 -50 -124t-152 -42q-85 0 -146 29
q-33 16 -52 36q-12 15 -12 34q0 20 14.5 35t34.5 15q24 0 39 -18q3 -4 12 -9.5t40 -14t70 -8.5q66 0 88 19q15 12 15 48q0 8 -3 11.5t-17 10.5q-22 12 -77.5 23t-103.5 28t-73 47q-24 29 -24 68q0 38 18.5 69t49.5 47q47 25 130 25z" />
    <glyph glyph-name="low_t" unicode="t" vert-adv-y="824" 
d="M194 607q0 21 15 35.5t35 14.5t34.5 -14.5t14.5 -35.5v-124h160q20 0 34.5 -14.5t14.5 -35t-14.5 -35t-34.5 -14.5h-160v-230q0 -36 13 -49q17 -19 71 -19h39h1q21 0 35.5 -14.5t14.5 -35t-14.5 -35t-35.5 -14.5h-1h-39q-22 0 -41 2t-47 12t-47.5 27t-33.5 49.5t-14 76.5
v230h-89q-20 0 -34.5 14.5t-14.5 35t14.5 35t34.5 14.5h89v124z" />
    <glyph glyph-name="low_u" unicode="u" vert-adv-y="824" 
d="M75 427q0 21 15 35.5t35 14.5q21 0 35.5 -14.5t14.5 -35.5v-215q0 -78 26 -107q22 -24 79 -24t79 24q26 28 26 107v215q0 21 14.5 35.5t35 14.5t35.5 -14.5t15 -35.5v-215q0 -230 -205 -230q-101 0 -152 56q-53 58 -53 174v215z" />
    <glyph glyph-name="low_v" unicode="v" vert-adv-y="824" 
d="M457 487q21 0 35.5 -14.5t14.5 -35.5q0 -11 -5 -21l-178 -394q-13 -30 -45 -30t-45 30l-178 394q-5 10 -5 21q0 21 14.5 35.5t35.5 14.5q32 0 45 -30l133 -294l133 294q13 30 45 30z" />
    <glyph glyph-name="low_w" unicode="w" vert-adv-y="824" 
d="M480 492q21 0 35.5 -14.5t14.5 -34.5q0 -4 -60 -408q-3 -19 -17 -31t-33 -12q-31 0 -45 29l-96 202l-96 -202q-14 -29 -45 -29q-19 0 -33 12t-17 31q-60 404 -60 407q0 21 14.5 35.5t35.5 14.5q19 0 33 -12t16 -31l36 -238l71 149q14 29 45 29t45 -29l71 -149l36 238
q2 19 16 31t33 12z" />
    <glyph glyph-name="low_x" unicode="x" vert-adv-y="824" 
d="M67 437q0 21 15 35.5t35 14.5q24 0 39 -19l124 -150l124 150q15 19 39 19q21 0 35.5 -14.5t14.5 -35.5q0 -18 -12 -32l-136 -166l136 -165q12 -14 12 -32q0 -21 -14.5 -35.5t-35.5 -14.5q-24 0 -39 19l-124 150l-124 -150q-15 -19 -39 -19q-21 0 -35.5 14.5t-14.5 35.5
q0 18 12 32l136 165l-136 166q-12 14 -12 32z" />
    <glyph glyph-name="low_y" unicode="y" vert-adv-y="824" 
d="M473 487q22 0 36.5 -15t14.5 -35q0 -13 -6 -24l-186 -350q-2 -3 -6 -11q-35 -67 -67 -104q-74 -84 -172 -84h-1q-21 0 -35.5 14.5t-14.5 35t14.5 35t35.5 14.5h1q44 0 77.5 30.5t66.5 91.5l-186 325q-7 12 -7 25q0 21 15 35.5t35 14.5q29 0 44 -26l154 -270l144 271
q13 26 43 27v0z" />
    <glyph glyph-name="low_z" unicode="z" vert-adv-y="824" 
d="M105 382q-20 0 -34.5 14.5t-14.5 35t14.5 35.5t34.5 15h347q21 0 35.5 -15t14.5 -35q0 -19 -12 -33l-274 -313h237q20 0 34.5 -14.5t14.5 -35t-14.5 -35t-34.5 -14.5h-347q-21 0 -35.5 14.5t-14.5 34.5q0 19 12 33l274 313h-237z" />
    <glyph glyph-name="l_curly_bracket" unicode="{" vert-adv-y="824" 
d="M210 619q0 52 42.5 90.5t119.5 38.5q21 0 35.5 -14.5t14.5 -35t-14.5 -35t-35.5 -14.5v0q-36 0 -53 -14q-9 -7 -9 -16v-218q0 -23 -18 -38l-28 -23l28 -23q18 -15 18 -39v-217q0 -9 9 -17q18 -13 53 -13v0q21 0 35.5 -14.5t14.5 -35.5t-14.5 -35.5t-35.5 -14.5v0
q-77 0 -119.5 39t-42.5 91v194l-56 46q-18 15 -18 38.5t18 38.5l56 47v194z" />
    <glyph glyph-name="pipe" unicode="|" vert-adv-y="824" 
d="M230 684q0 21 15 35.5t35 14.5q21 0 35.5 -14.5t14.5 -35.5v-744q0 -21 -14.5 -35.5t-35.5 -14.5t-35.5 14.5t-14.5 35.5v744z" />
    <glyph glyph-name="r_curly_bracket" unicode="}" vert-adv-y="824" 
d="M348 61q0 -52 -42.5 -91t-119.5 -39v0q-21 0 -35.5 14.5t-14.5 35.5t14.5 35.5t35.5 14.5v0q35 0 53 13q9 8 9 17v217q0 24 18 39l28 23l-28 23q-18 15 -18 38v218q0 9 -9 16q-17 14 -53 14v0q-21 0 -35.5 14.5t-14.5 35t14.5 35t35.5 14.5v0q77 0 119.5 -38.5
t42.5 -90.5v-194l56 -47q18 -15 18 -38.5t-18 -38.5l-56 -46v-194z" />
    <glyph glyph-name="tilde" unicode="~" vert-adv-y="824" 
d="M355 199q-30 0 -57 13.5t-42 29.5t-29.5 29.5t-22.5 13.5q-10 0 -23 -18q-15 -25 -44 -25q-20 0 -34.5 14.5t-14.5 35.5q0 13 6 24q3 6 9 14t19 22t34.5 23.5t47.5 9.5q24 0 46.5 -10.5t33.5 -20t28 -27.5t24.5 -23t18.5 -5q14 0 20 13t18 21.5t28 8.5q20 0 34.5 -14.5
t14.5 -35.5q0 -10 -4 -20q-2 -4 -4.5 -8.5t-12.5 -17t-21.5 -22t-31 -17.5t-41.5 -8z" />
    <glyph glyph-name="uni00A0" unicode="&#xa0;" vert-adv-y="800" 
 />
    <glyph glyph-name="inverted_exclamation" unicode="&#xa1;" vert-adv-y="824" 
d="M279 531q-27 0 -45.5 18.5t-18.5 45t18.5 45.5t45.5 19t45.5 -19t18.5 -45.5t-18.5 -45t-45.5 -18.5zM328 49q0 -20 -14.5 -35t-35.5 -14q-21 0 -35 14.5t-14 34.5v399q0 21 14.5 35.5t35 14.5t35 -14.5t14.5 -35.5v-399z" />
    <glyph glyph-name="cent_sign" unicode="&#xa2;" vert-adv-y="824" 
d="M250 466q-64 -22 -64 -141q0 -118 64 -141v282zM250 585q0 21 15 35.5t35 14.5q21 0 35.5 -14.5t14.5 -35.5v-1v-16q74 -16 114 -72q10 -13 10 -29q0 -21 -15 -35.5t-35 -14.5q-27 0 -41 21q-14 19 -33 27v-279q17 7 29 22q15 18 38 18q21 0 35.5 -14.5t14.5 -35.5
q0 -18 -12 -32q-39 -48 -105 -62v-16v-1q0 -20 -14.5 -35t-35.5 -15t-35.5 15t-14.5 35v1v15q-32 6 -59 20.5t-51.5 41.5t-39 73.5t-14.5 108.5q0 130 63 194q40 39 101 50v16z" />
    <glyph glyph-name="pound_sign" unicode="&#xa3;" vert-adv-y="824" 
d="M173 467q0 83 43.5 136.5t105.5 53.5q63 0 113 -33q24 -15 24 -43q0 -20 -15 -35t-35 -15q-15 0 -27 8q-32 18 -60 18q-17 0 -30 -20q-19 -27 -19 -70v-166h65q21 0 35.5 -14.5t14.5 -35.5t-14.5 -35.5t-35.5 -14.5h-65v-114h164q21 0 35.5 -15t14.5 -35.5t-14.5 -35
t-35.5 -14.5h-316q-21 0 -35.5 14.5t-14.5 35t14.5 35.5t35.5 15h52v114h-52q-21 0 -35.5 14.5t-14.5 35.5t14.5 35.5t35.5 14.5h52v166z" />
    <glyph glyph-name="currency_sign" unicode="&#xa4;" vert-adv-y="824" 
d="M326 291.5q0 19.5 -14 33.5t-33 14t-33 -14t-14 -33.5t14 -33.5t33 -14t33 14t14 33.5zM115 406q0 21 14.5 35.5t35.5 14.5t35 -15l17 -16q29 14 62 14t62 -14l17 16q14 15 35 15t35.5 -14.5t14.5 -35.5t-15 -36l-16 -16q14 -29 14 -62t-14 -63l16 -16q15 -15 15 -36
q0 -20 -14.5 -35t-35.5 -15t-35 15l-17 16q-29 -13 -62 -13t-62 13l-17 -16q-14 -15 -35 -15t-35.5 15t-14.5 35q0 21 15 36l16 16q-14 30 -14 63t14 62l-16 16q-15 15 -15 36z" />
    <glyph glyph-name="yen_sign" unicode="&#xa5;" vert-adv-y="824" 
d="M478 658q21 0 35.5 -14.5t14.5 -35.5q0 -15 -8 -28l-136 -206h3h1q21 0 35.5 -14.5t14.5 -35t-14.5 -35.5t-35.5 -15h-1h-58v-2h59q21 0 35.5 -14.5t14.5 -35t-14.5 -35.5t-35.5 -15h-59v-138q0 -21 -14.5 -35.5t-35.5 -14.5t-35.5 14.5t-14.5 35.5v138h-59q-20 0 -35 15
t-15 35.5t15 35t35 14.5h59v1.5v0.5h-59q-20 0 -35 15t-15 35.5t15 35t35 14.5h1h3l-136 206q-8 13 -8 28q0 20 14 35t36 15q27 0 42 -23l157 -238l157 238q15 23 42 23z" />
    <glyph glyph-name="broken_bar" unicode="&#xa6;" vert-adv-y="824" 
d="M230 259q0 21 15 35.5t35 14.5q21 0 35.5 -14.5t14.5 -35.5v-312q0 -21 -14.5 -35.5t-35.5 -14.5t-35.5 14.5t-14.5 35.5v312zM230 690q0 22 15 36.5t35 14.5q21 0 35.5 -14.5t14.5 -35.5v-311q0 -20 -14.5 -35t-35.5 -15t-35.5 15t-14.5 35v310z" />
    <glyph glyph-name="section_sign" unicode="&#xa7;" vert-adv-y="824" 
d="M168 374q-35 30 -35 71q0 29 15 53.5t38 37.5q35 18 94 18q71 0 109 -27q20 -14 20 -40q0 -21 -15 -35.5t-35 -14.5q-17 0 -30 10q-20 7 -49 7q-27 0 -44 -5q20 -14 70 -25q6 -1 11 -4q48 -12 79 -51.5t31 -90.5q0 -54 -35 -95q40 -32 40 -75q0 -62 -39 -95
q-37 -31 -111 -31q-59 0 -102 20q-26 13 -40 29q-12 14 -12 32q0 21 15 35.5t35 14.5q23 0 37 -16q24 -15 67 -15q37 0 46 8q3 2 4 13q-22 19 -79 30q-56 12 -88 53t-32 92q0 55 35 96zM279.5 231q19.5 0 33.5 14t14 33.5t-14 33.5t-33.5 14t-33.5 -14t-14 -33.5t14 -33.5
t33.5 -14zM334 474z" />
    <glyph glyph-name="diacritic_umlaut" unicode="&#xa8;" vert-adv-y="824" 
d="M359.5 654q26.5 0 45.5 -18.5t19 -45.5t-19 -45.5t-45.5 -18.5t-45.5 18.5t-19 45.5t19 45.5t45.5 18.5zM200.5 654q26.5 0 45.5 -18.5t19 -45.5t-19 -45.5t-45.5 -18.5t-45.5 18.5t-19 45.5t19 45.5t45.5 18.5z" />
    <glyph glyph-name="copyright_sign" unicode="&#xa9;" vert-adv-y="824" 
d="M171 291.5q0 46.5 33 79.5t79.5 33t79.5 -33q11 -11 11 -26.5t-11 -26.5t-26.5 -11t-26.5 11t-26.5 11t-26.5 -11t-11 -26.5t11 -26.5t26.5 -11t26.5 11t26.5 11t26.5 -11t11 -26.5t-11 -26.5q-33 -33 -79.5 -33t-79.5 33t-33 79.5zM405 291.5q0 51.5 -37 88.5t-89 37
t-89 -37t-37 -88.5t37 -88.5t89 -37t89 37t37 88.5zM79 291.5q0 83.5 58.5 142t141.5 58.5t141.5 -58.5t58.5 -142t-58.5 -142t-141.5 -58.5t-141.5 58.5t-58.5 142z" />
    <glyph glyph-name="feminine_ordinal_indicator" unicode="&#xaa;" vert-adv-y="824" 
d="M181 350h198q16 0 27 -11t11 -26.5t-11 -26.5t-27 -11h-198q-16 0 -27 11t-11 26.5t11 26.5t27 11zM269 442q27 0 44 15v28q-17 8 -44 8q-16 0 -30.5 -4.5t-17.5 -10.5q-1 -2 -1 -9q0 -12 10 -19q14 -8 39 -8zM209 566q-15 0 -26 11t-11 27q0 21 19 32q34 19 83 19
t81.5 -28t32.5 -69v-104l21 -31q6 -9 6 -21q0 -15 -11 -26t-27 -11q-20 0 -31 16l-3 6q-34 -20 -74 -20q-47 0 -79 20q-45 28 -45 82q0 27 13.5 48.5t34.5 32.5q32 18 76 18q23 0 43 -4q-2 6 -13 11t-25 5q-17 0 -32 -4l-14 -5q-9 -5 -19 -5z" />
    <glyph glyph-name="left_double_angle_quote" unicode="&#xab;" vert-adv-y="824" 
d="M419 463q20 0 35 -14.5t15 -35.5q0 -22 -16 -36l-89 -85l89 -85q16 -15 16 -37q0 -21 -15 -35.5t-35 -14.5q-21 0 -35 14l-127 122q-15 14 -15 35.5t15 36.5l127 121q14 14 35 14zM268 463q21 0 35.5 -14.5t14.5 -35.5q0 -22 -16 -36l-88 -85l88 -85q16 -15 16 -37
q0 -21 -14.5 -35.5t-35.5 -14.5q-20 0 -35 14l-126 122q-16 14 -16 35.5t16 36.5l126 121q15 14 35 14z" />
    <glyph glyph-name="not_sign" unicode="&#xac;" vert-adv-y="824" 
d="M419 341h7q20 0 35 -14.5t15 -35.5v-7v-109q0 -21 -15 -35.5t-35.5 -14.5t-35 14.5t-14.5 35.5v66h-244q-21 0 -35.5 14.5t-14.5 35.5t14.5 35.5t35.5 14.5h287z" />
    <glyph glyph-name="registered_sign" unicode="&#xae;" vert-adv-y="824" 
d="M79 291.5q0 83.5 58.5 142t141.5 58.5t141.5 -58.5t58.5 -142t-58.5 -142t-141.5 -58.5t-141.5 58.5t-58.5 142zM295 307q6 0 6 18q0 16 -5 18h-1h-11.5h-10.5v-36h22zM296 343zM198 388q-45 -38 -45 -96.5t45 -96.5v8v178v7zM273 232v-29q0 -24 -21 -34q2 -1 6 -1.5
t7.5 -0.5t6.5 -0.5t5 -0.5h2q20 0 38 6q-6 4 -9 10l-33 50h-1.5h-0.5zM351 395q25 -27 25 -70q0 -44 -27 -70l21 -32q4 -5 5 -12q9 11 15.5 28t10 34.5t4.5 18.5q0 65 -54 103z" />
    <glyph glyph-name="diacritic_macron" unicode="&#xaf;" vert-adv-y="824" 
d="M167 655h224q21 0 35.5 -14.5t14.5 -35.5t-14.5 -35.5t-35.5 -14.5h-224q-21 0 -35.5 14.5t-14.5 35.5t14.5 35.5t35.5 14.5z" />
    <glyph glyph-name="degrees" unicode="&#xb0;" vert-adv-y="824" 
d="M301 538q0 9 -6 15t-15 6t-15 -6t-6 -15t6 -14.5t15 -5.5t15 5.5t6 14.5zM401 538.5q0 -49.5 -35.5 -85t-85.5 -35.5t-85.5 35.5t-35.5 85t35.5 85t85.5 35.5t85.5 -35.5t35.5 -85z" />
    <glyph glyph-name="plus_minus_sign" unicode="&#xb1;" vert-adv-y="824" 
d="M167 179h224q21 0 35.5 -15t14.5 -35.5t-14.5 -35t-35.5 -14.5h-224q-21 0 -35.5 14.5t-14.5 35t14.5 35.5t35.5 15zM279 505q21 0 35.5 -15t14.5 -35v-63h62q21 0 35.5 -14.5t14.5 -35t-14.5 -35.5t-35.5 -15h-62v-62q0 -21 -14.5 -35.5t-35.5 -14.5t-35.5 14.5
t-14.5 35.5v62h-62q-21 0 -35.5 15t-14.5 35.5t14.5 35t35.5 14.5h62v63q0 20 14.5 35t35.5 15z" />
    <glyph glyph-name="diacritic_acute" unicode="&#xb4;" vert-adv-y="824" 
d="M332 720q27 0 46 -19t19 -46q0 -28 -21 -47l-105 -100q-19 -18 -45 -18q-27 0 -46 19t-19 46q0 28 21 47l105 100q19 18 45 18z" />
    <glyph glyph-name="micro" unicode="&#xb5;" vert-adv-y="824" 
d="M118 459q1 -1 3.5 -1.5t3.5 -0.5l15 15l-4 10l-11 5zM75 433q0 27 16 40.5t34 13.5q21 0 35.5 -14.5t14.5 -35.5v-251q2 -46 30 -71t75 -25q49 0 76 24q29 25 29 77v245q0 22 14.5 36.5t35.5 14.5q20 0 35 -14.5t15 -35.5v-246q0 -91 -56.5 -146t-148.5 -55
q-58 0 -105 25v-85q0 -21 -14.5 -35.5t-35 -14.5t-35.5 14.5t-15 35.5v255v6v242z" />
    <glyph glyph-name="pilcrow" unicode="&#xb6;" vert-adv-y="824" 
d="M263 210q-78 1 -132 66.5t-54 163.5t54 163.5t132 65.5h170q20 0 35 -15t15 -35v-577q0 -21 -15 -35.5t-35.5 -14.5t-35 14.5t-14.5 35.5v527h-2v-527q0 -21 -15 -35.5t-35.5 -14.5t-35 14.5t-14.5 35.5v168h-18z" />
    <glyph glyph-name="middle_dot" unicode="&#xb7;" vert-adv-y="824" 
d="M380 291.5q0 -41.5 -29.5 -70.5t-70.5 -29t-70.5 29t-29.5 70.5t29.5 70.5t70.5 29t70.5 -29t29.5 -70.5z" />
    <glyph glyph-name="diacritic_cedilha" unicode="&#xb8;" vert-adv-y="824" 
d="M226 -46q1 0 4.5 -0.5t7.5 -0.5q25 0 40 5q-2 1 -5 1q-18 2 -31 16.5t-13 33.5q0 21 14.5 35.5t35.5 14.5q24 0 51 -15q21 -12 36.5 -35t15.5 -53q0 -42 -34 -72.5t-106 -30.5q-9 0 -18 1q-20 0 -34 14.5t-14 35.5q0 20 14.5 35t35.5 15z" />
    <glyph glyph-name="masculine_ordinal_indicator" unicode="&#xba;" vert-adv-y="824" 
d="M181 349h198q16 0 27 -11t11 -26.5t-11 -26.5t-27 -11h-198q-16 0 -27 11t-11 26.5t11 26.5t27 11zM330 510.5q0 23.5 -4.5 38.5t-12.5 21.5t-15 8t-18 1.5t-18 -1.5t-15.5 -8t-12.5 -21.5t-4 -38.5t4.5 -38.5t12.5 -21t15 -8t18 -2t18 2t15 8.5t12.5 21t4.5 38zM280 366
q-15 0 -29 2.5t-32 11.5t-31.5 23.5t-23 42.5t-9.5 65q0 74 38 112q32 32 87 32q14 0 28 -2.5t32.5 -11.5t32 -23.5t23 -42.5t9.5 -64q0 -75 -38 -112q-32 -33 -87 -33z" />
    <glyph glyph-name="right_double_angle_quote" unicode="&#xbb;" vert-adv-y="824" 
d="M291 463h1q20 0 35 -14l126 -121q16 -15 16 -36.5t-16 -35.5l-126 -122q-15 -14 -35 -14q-21 0 -35.5 14.5t-14.5 35.5q0 22 16 37l88 85l-88 85q-16 14 -16 36q0 21 14.5 35.5t34.5 14.5zM140 463h1q21 0 35 -14l127 -121q15 -15 15 -36.5t-15 -35.5l-127 -122
q-14 -14 -35 -14q-20 0 -35 14.5t-15 35.5q0 22 16 37l89 85l-89 85q-16 14 -16 36q0 21 14.5 35.5t34.5 14.5z" />
    <glyph glyph-name="inverted_question_mark" unicode="&#xbf;" vert-adv-y="824" 
d="M298.5 530q-26.5 0 -45.5 19t-19 45.5t19 45t45.5 18.5t45.5 -18.5t19 -45t-19 -45.5t-45.5 -19zM373 127zM299 284h-0.5h-1.5q-62 0 -86 -18q-24 -19 -24 -74t24 -74t88 -19q44 0 66 19q8 7 8 9q5 15 18.5 24.5t29.5 9.5q20 0 34.5 -14.5t14.5 -35.5q0 -18 -13 -37.5
t-28 -31.5q-49 -42 -130 -42h-1q-97 0 -148 40q-62 48 -62 152q0 33 7 62t23.5 57t50 46.5t80.5 23.5v53q0 21 14.5 35.5t35 14.5t35 -14.5t14.5 -35.5v-100q0 -21 -14.5 -35.5t-34.5 -14.5z" />
    <glyph glyph-name="cap_n_with_tilde" unicode="&#xd1;" vert-adv-y="824" 
d="M355 653q-29 0 -56 13.5t-42 29.5t-29.5 29t-22.5 13q-10 0 -23 -17q-15 -26 -44 -26q-20 0 -35 15t-15 35q0 13 7 25q3 6 8.5 13.5t19 22t35 23.5t47.5 9q24 0 46.5 -10t33.5 -20t28 -27q17 -18 25 -23t17 -5q15 0 21 13q5 13 17.5 21.5t28.5 8.5q20 0 35 -14.5
t15 -35.5q0 -11 -5 -21q-1 -3 -4 -8t-13 -17.5t-21.5 -22t-31 -17t-42.5 -7.5zM391 613q0 22 15 36t35 14q21 0 35.5 -14.5t14.5 -35.5v0v-571q0 -20 -14.5 -34.5t-35.5 -14.5q-29 0 -43 25l-229 405v-381q0 -21 -14.5 -35.5t-35.5 -14.5t-35.5 14.5t-14.5 35.5v1v570
q0 21 14.5 35.5t35.5 14.5q29 0 43 -26l229 -405v381z" />
    <glyph glyph-name="multiplication_sign" unicode="&#xd7;" vert-adv-y="824" 
d="M394 456q21 0 35.5 -15t14.5 -35.5t-15 -35.5l-78 -78l78 -79q15 -15 15 -35.5t-14.5 -35t-35.5 -14.5t-35 14l-79 79l-79 -79q-14 -14 -35 -14t-35.5 14.5t-14.5 35t15 35.5l78 79l-78 78q-15 15 -15 35.5t14.5 35.5t35.5 15t35 -15l79 -79l79 79q14 15 35 15z" />
    <glyph glyph-name="cap_o_with_strike" unicode="&#xd8;" vert-adv-y="824" 
d="M376 515q-15 21 -37 28t-60 7t-59 -7t-36 -25q-41 -51 -41 -202q0 -41 3 -74zM177 123q16 -25 39 -33t63 -8q38 0 59 6.5t36 24.5q41 50 41 203q0 47 -5 85zM43 316q0 62 6 110.5t22 91.5t42 71t68 44.5t98 16.5q107 0 163 -58q13 11 31 11q20 0 35 -14.5t15 -35.5
q0 -18 -12 -32l-18 -21q22 -70 22 -184q0 -188 -64 -266q-55 -68 -172 -68q-115 0 -171 67q-10 -5 -21 -5q-21 0 -35.5 14.5t-14.5 35.5q0 18 12 32l13 15q-19 68 -19 175zM431 575z" />
    <glyph glyph-name="cap_thorn" unicode="&#xde;" vert-adv-y="824" 
d="M398 332q0 58 -29 97q-24 32 -57 32h-150v-259l150 1q38 0 62 39.5t24 89.5zM312 561q78 0 132 -65.5t54 -163.5t-54 -163.5t-132 -65.5l-150 -1v-59q0 -20 -14.5 -35t-35 -15t-35.5 15t-15 35v577q0 20 15 35t35.5 15t35 -15t14.5 -35v-59h150z" />
    <glyph glyph-name="division_sign" unicode="&#xf7;" vert-adv-y="824" 
d="M279 470q27 0 45.5 -19t18.5 -45t-17.5 -44.5t-42.5 -19.5h157q21 0 35.5 -15t14.5 -35.5t-14.5 -35t-35.5 -14.5h-157q25 -2 42.5 -20.5t17.5 -43.5q0 -27 -18.5 -46t-45.5 -19t-45.5 19t-18.5 46q0 25 17.5 43.5t42.5 20.5h-157q-21 0 -35.5 14.5t-14.5 35t14.5 35.5
t35.5 15h157q-25 1 -42.5 19.5t-17.5 44.5t18.5 45t45.5 19z" />
    <glyph glyph-name="low_o_with_strike" unicode="&#xf8;" vert-adv-y="824" 
d="M279 378q-24 0 -41 -5t-34.5 -19.5t-26.5 -45.5t-9 -78q0 -24 2 -44l156 185q-19 7 -47 7zM279 82q24 0 41 5t34.5 19t26.5 45.5t9 78.5q0 31 -4 56l-164 -194q22 -10 57 -10zM124 4q-21 0 -35.5 14.5t-14.5 35.5q0 18 12 32l7 8q-25 55 -25 136q0 130 63 193
q54 55 148 55q66 0 114 -29q14 14 34 14q21 0 35.5 -14.5t14.5 -35.5q0 -18 -16 -38q29 -58 29 -145q0 -130 -63 -193q-55 -55 -148 -55q-73 0 -123 34q-14 -12 -32 -12zM86 86zM166 31zM165 27v-1v1zM385 435z" />
    <glyph glyph-name="low_y_with_acute" unicode="&#xfd;" vert-adv-y="824" 
d="M473 484q22 0 36.5 -15t14.5 -35q0 -13 -6 -24l-186 -350q-2 -3 -6 -11q-35 -67 -67 -104q-74 -84 -172 -84h-1q-21 0 -35.5 14.5t-14.5 35t14.5 35.5t35.5 15h1q44 0 77.5 30t66.5 91l-186 325q-7 12 -7 25q0 21 14.5 35.5t35.5 14.5q29 0 44 -26l154 -270l144 271
q13 26 43 27zM333 720q27 0 46 -19t19 -46q0 -28 -21 -48l-105 -99q-19 -18 -46 -18q-26 0 -45 19t-19 45q0 29 21 48l105 100q19 18 45 18z" />
    <glyph glyph-name="low_thorn" unicode="&#xfe;" vert-adv-y="824" 
d="M396 233q0 47 -9 78.5t-26.5 45.5t-34.5 19t-41 5t-41 -5t-34.5 -19t-26.5 -45.5t-9 -78.5t9 -78t26.5 -45.5t35 -19.5t40.5 -5q24 0 41 5t34.5 19.5t26.5 45.5t9 78zM285 481q27 0 52 -4.5t55.5 -20.5t52.5 -41.5t36.5 -72.5t14.5 -109q0 -129 -63 -193
q-55 -55 -148 -55q-73 0 -123 35v-112q0 -21 -15 -35.5t-35.5 -14.5t-35 14.5t-14.5 35.5v713q0 21 14.5 35.5t35 14.5t35.5 -14.5t15 -35.5v-174q49 34 123 34z" />
    <glyph glyph-name="dotless_i" unicode="&#x131;" vert-adv-y="824" 
d="M173 384q-20 0 -35 14.5t-15 35t15 35.5t35 15h114q20 0 35 -15t15 -35v-347h71q21 0 35.5 -15t14.5 -35.5t-14.5 -35t-35.5 -14.5h-258q-21 0 -35.5 14.5t-14.5 35t14.5 35.5t35.5 15h87v297h-64z" />
    <glyph glyph-name="dotless_j" unicode="&#x237;" vert-adv-y="824" 
d="M278 -38q23 0 39.5 14t16.5 52v356h-63q-20 0 -35 14.5t-15 35t15 35.5t35 15h113q21 0 35.5 -15t14.5 -35v-406q0 -76 -44.5 -121t-111.5 -45t-110.5 46.5t-43.5 119.5q0 21 14.5 35.5t35 14.5t35 -14.5t15.5 -34.5q1 -67 54 -67z" />
    <glyph glyph-name="diacritic_tilde" unicode="&#x2dc;" vert-adv-y="824" 
d="M355 497q-29 0 -56 13.5t-42 29.5t-29.5 29.5t-22.5 13.5q-10 0 -23 -18q-15 -25 -44 -25q-20 0 -35 14.5t-15 35.5q0 13 7 24q3 6 8.5 14t19 22t35 23.5t47.5 9.5q24 0 46.5 -10.5t33.5 -20t28 -27.5q17 -17 25 -22.5t17 -5.5q15 0 21 13q5 14 17.5 22t28.5 8
q20 0 35 -14.5t15 -35.5q0 -10 -5 -20q-1 -4 -4 -8.5t-13 -17t-21.5 -22t-31 -17.5t-42.5 -8z" />
    <glyph glyph-name="baht_sign" unicode="&#xe3f;" vert-adv-y="824" 
d="M441 395q67 -49 67 -141q0 -66 -30 -116q-19 -31 -53.5 -51.5t-77.5 -20.5h-44v-11.5v-11.5v-1q0 -21 -14.5 -35.5t-35 -14.5t-35.5 14.5t-15 35.5v1v11.5v11.5h-103q-20 0 -35 15t-15 35v265v6.5v6.5v220q0 21 15 35.5t35 14.5h196q97 0 141 -58q30 -40 30 -108
q0 -67 -26 -103zM347 166q19 0 28.5 6t17.5 19q15 25 15 63q0 78 -105 83v-171h44zM150 337v-85v-86h53v171h-53zM367 498q0 35 -10 48q-12 17 -54 18v-126q45 2 57 16q7 9 7 44zM150 564v-63v-64h53v127h-53z" />
    <glyph glyph-name="uni2002" unicode="&#x2002;" vert-adv-y="800" 
 />
    <glyph glyph-name="uni2009" unicode="&#x2009;" vert-adv-y="800" 
 />
    <glyph glyph-name="uni200B" unicode="&#x200b;" vert-adv-y="800" 
 />
    <glyph glyph-name="bullet" unicode="&#x2022;" vert-adv-y="824" 
d="M401 291.5q0 -49.5 -35.5 -85t-85.5 -35.5t-85.5 35.5t-35.5 85t35.5 85t85.5 35.5t85.5 -35.5t35.5 -85z" />
    <glyph glyph-name="ellipsis" unicode="&#x2026;" vert-adv-y="824" 
d="M514 62q0 -33 -23.5 -56.5t-56.5 -23.5q-27 0 -48.5 16.5t-28.5 41.5q-8 -25 -29 -41.5t-48 -16.5t-48 16.5t-29 41.5q-7 -25 -28.5 -41.5t-48.5 -16.5q-33 0 -56.5 23.5t-23.5 56.5t23.5 56.5t56.5 23.5q27 0 48.5 -16t28.5 -41q8 25 29 41t48 16t48 -16t29 -41
q7 25 28.5 41t48.5 16q33 0 56.5 -23.5t23.5 -56.5z" />
    <glyph glyph-name="colon_sign" unicode="&#x20a1;" vert-adv-y="824" 
d="M186 325q0 -8 1 -16l25 129q-26 -36 -26 -113zM321 472l-58 -292h1zM152 130q-66 63 -66 195q0 18 1.5 33.5t5.5 43t14 50.5t26 47t42.5 41.5t61.5 25.5l3 14q3 18 17 29.5t32 11.5q21 0 35.5 -14.5t14.5 -35.5v-1h1l2 10q3 18 17 29.5t32 11.5q21 0 35.5 -14.5
t14.5 -35.5q0 -5 -7 -42q17 -14 30 -33q10 -13 10 -29q0 -21 -15 -35.5t-35 -14.5q-6 0 -12 1l-43 -220q5 4 10 10q15 18 38 18q21 0 35.5 -14.5t14.5 -35.5q0 -18 -12 -32q-40 -49 -109 -62l-2 -12q-3 -17 -17 -29t-32 -12q-21 0 -35.5 15t-14.5 35v3h-1l-2 -12
q-3 -17 -17 -29t-32 -12q-21 0 -35.5 15t-14.5 35q0 5 9 51z" />
    <glyph glyph-name="franc_sign" unicode="&#x20a3;" vert-adv-y="824" 
d="M406 273q0 -21 -15 -35.5t-34 -14.5h-140v-2h77q21 0 35.5 -15t14.5 -35.5t-14.5 -35t-35.5 -14.5h-77v-79q0 -21 -15 -35.5t-35.5 -14.5t-35 14.5t-14.5 35.5v79h-2h-1q-21 0 -35.5 14.5t-14.5 35t14.5 35.5t35.5 15h1h2v396q0 20 14.5 35t35.5 15h277q21 0 35.5 -15
t14.5 -35.5t-14.5 -35t-35.5 -14.5h-227v-244h140q20 -1 34.5 -15.5t14.5 -34.5z" />
    <glyph glyph-name="naira_sign" unicode="&#x20a6;" vert-adv-y="824" 
d="M386 188l4 -4l3 5zM378 283h-18l1 -2h17v2zM182 283v-2h66l-1 2h-65zM182 383h13l-13 26v-26zM378 613q0 22 15 36.5t35 14.5q21 0 35.5 -15t14.5 -35v-232q19 -2 31.5 -16t12.5 -33t-12.5 -33t-31.5 -17v-3q19 -2 31.5 -16t12.5 -33t-12.5 -33t-31.5 -17v-138
q0 -21 -14.5 -35.5t-35.5 -14.5q-30 0 -44 27l-84 161h-118v-139q0 -21 -15 -35.5t-35.5 -14.5t-35 14.5t-14.5 35.5v139q-19 3 -31.5 17t-12.5 33t12.5 33t31.5 16v3q-19 3 -31.5 17t-12.5 33t12.5 33t31.5 16v231q0 21 14.5 35.5t35.5 14.5q30 0 44 -27l132 -253h70v230z
" />
    <glyph glyph-name="won_sign" unicode="&#x20a9;" vert-adv-y="824" 
d="M67 615q0 20 15 35t35 15t34.5 -13.5t15.5 -33.5l20 -236h25l20 70q5 16 18 26t30 10t30 -10t18 -26l20 -70h25l20 236q1 20 15.5 33.5t34.5 13.5t35 -15t15 -35q0 -2 -20 -233h1q20 0 35 -14.5t15 -35t-15 -35.5t-35 -15h-1h-8l-1 -2h9h1q20 0 35 -14.5t15 -35
t-15 -35.5t-35 -15h-1h-17l-12 -142q-2 -19 -16 -32.5t-34 -13.5q-17 0 -30 10t-18 26l-44 152h-44l-44 -152q-5 -16 -18 -26t-30 -10q-20 0 -34 13.5t-16 32.5l-12 142h-17h-1q-20 0 -35 15t-15 35.5t15 35t35 14.5h1h9l-1 2h-8h-1q-20 0 -35 15t-15 35.5t15 35t35 14.5h1
q-20 231 -20 233z" />
    <glyph glyph-name="euro_sign" unicode="&#x20ac;" vert-adv-y="824" 
d="M94 371q3 50 10.5 90t24 77t41.5 61t64.5 38.5t91.5 14.5q99 0 155 -49q18 -15 31 -37t13 -38q0 -21 -15 -35.5t-35 -14.5q-18 0 -31.5 11t-17.5 27q-2 4 -10 12q-28 24 -90 24q-38 0 -58 -7t-35 -26q-32 -40 -38 -148h98q20 0 35 -14.5t15 -35.5t-15 -35.5t-35 -14.5
h-99v-2h99q20 0 35 -14.5t15 -35.5t-15 -35.5t-35 -14.5h-84q15 -55 42 -71t75 -16q65 0 93 32q13 14 15 24q3 18 17 30t32 12q21 0 35.5 -14.5t14.5 -35.5q0 -14 -10.5 -38t-28.5 -45q-59 -65 -168 -65q-97 0 -149.5 48.5t-70.5 138.5h-30h-1q-21 0 -35.5 14.5t-14.5 35.5
t14.5 35.5t35.5 14.5h1h18v2h-18h-1q-21 0 -35.5 14.5t-14.5 35.5t14.5 35.5t35.5 14.5h1h18zM434 138z" />
    <glyph glyph-name="kip_sign" unicode="&#x20ad;" vert-adv-y="824" 
d="M431 671q21 0 35.5 -14.5t14.5 -35.5q0 -17 -10 -30l-151 -208h97q20 0 35 -14.5t15 -35.5t-15 -35.5t-35 -14.5h-1h-41l142 -207q9 -13 9 -28q0 -21 -14.5 -35.5t-35.5 -14.5q-26 0 -41 22l-181 263h-7l-67 -93v-148q0 -21 -15 -35.5t-35.5 -14.5t-35 14.5t-14.5 35.5
v159q-1 2 -1 4.5t1 5.5v72q-20 1 -34 15.5t-14 34.5t14 34.5t34 15.5v236q0 21 14.5 35.5t35 14.5t35.5 -14.5t15 -35.5v-236h16l195 267q15 21 40 21z" />
    <glyph glyph-name="tugrik_sign" unicode="&#x20ae;" vert-adv-y="824" 
d="M273 661h6h1h7h168q21 0 35.5 -15t14.5 -35.5t-14.5 -35t-35.5 -14.5h-125v-153l40 17q9 4 20 4q20 0 35 -14.5t15 -35.5q0 -15 -9 -28t-23 -18l-14 -6q19 -2 32.5 -16.5t13.5 -33.5q0 -15 -9 -28t-23 -18l-78 -33v-156q0 -21 -14.5 -35.5t-35.5 -14.5t-35.5 14.5
t-14.5 35.5v114l-42 -17q-9 -4 -20 -4q-20 0 -35 14.5t-15 35.5q0 15 9 27.5t23 18.5l14 6q-19 2 -32.5 16t-13.5 34q0 15 9 27.5t23 18.5l80 34v194h-127q-21 0 -35.5 14.5t-14.5 35t14.5 35.5t35.5 15h170z" />
    <glyph glyph-name="peso_sign" unicode="&#x20b1;" vert-adv-y="824" 
d="M295 669q54 0 99 -34t69 -94h31h1q20 0 35 -14.5t15 -35t-15 -35.5t-35 -15h-1h-13v-1v-1h13h1q20 0 35 -14.5t15 -35t-15 -35.5t-35 -15h-1h-31q-12 -30 -30 -55q-25 -34 -60.5 -54t-77.5 -20h-119v-168q0 -21 -15 -35.5t-35.5 -14.5t-35 14.5t-14.5 35.5v211q-1 4 -1 7
t1 7v72h-10h-1q-20 0 -35 15t-15 35.5t15 35t35 14.5h1h10v2h-10h-1q-20 0 -35 15t-15 35.5t15 35t35 14.5h1h10v78q0 20 14.5 35t35.5 15h169zM176 339v-29h119q31 0 54 29h-173zM381 441h-205v-2h205v1v1zM295 569h-119v-28h173q-23 28 -54 28z" />
    <glyph glyph-name="rupee_sign" unicode="&#x20b9;" vert-adv-y="824" 
d="M251 302q42 0 67 36.5t25 92.5q0 14 -1 27h-227q-21 0 -35.5 15t-14.5 35.5t14.5 35t35.5 14.5h156q-7 2 -14 3h-142q-21 0 -35.5 14.5t-14.5 35t14.5 35.5t35.5 15h328q21 0 35.5 -15t14.5 -35.5t-14.5 -35t-35.5 -14.5v0h-30q1 -2 1 -3h29v0q21 0 35.5 -14.5t14.5 -35
t-14.5 -35.5t-35.5 -15v0h-1q1 -13 1 -27q0 -100 -53 -163q-48 -58 -122 -65l131 -133q15 -15 15 -36t-14.5 -35.5t-35.5 -14.5t-36 16l-198 202l543 -1h101h-659q-21 0 -35.5 15t-14.5 35.5t14.5 35t35.5 14.5l9.5 0.5t23 0.5h28.5h28h19h28z" />
    <glyph glyph-name="lira_sign" unicode="&#x20ba;" vert-adv-y="824" 
d="M142 610q0 21 15 35.5t35 14.5q21 0 35.5 -14.5t14.5 -35.5v-65l144 33q6 2 12 2q20 0 35 -15t15 -35q0 -18 -11.5 -31.5t-28.5 -17.5l-14 -3h4q20 0 34.5 -15t14.5 -35q0 -18 -11 -31.5t-28 -17.5l-166 -39v-247q78 4 114 18.5t47 39.5q10 20 11 56q1 21 15.5 35
t34.5 14q21 0 35.5 -14.5t14.5 -35.5q0 -13 -2.5 -29.5t-11 -46.5t-31.5 -58t-58 -45q-41 -21 -93 -28t-126 -7q-21 0 -35.5 14.5t-14.5 35.5v275q-43 -10 -48 -10q-21 0 -35.5 15t-14.5 35q0 18 11 32t28 17l15 4h-4q-21 0 -35.5 14.5t-14.5 35.5q0 17 11 31t28 17l59 14
v88z" />
    <glyph glyph-name="rouble_sign" unicode="&#x20bd;" vert-adv-y="824" 
d="M511 440q0 -98 -54 -163.5t-131 -66.5h-5q20 -15 20 -39q0 -21 -14.5 -35.5t-35.5 -14.5h-87v-79q0 -21 -14.5 -35.5t-35.5 -14.5t-35.5 14.5t-14.5 35.5v79h-7v0q-21 0 -35.5 14.5t-14.5 35.5q0 30 27 44q-27 14 -27 45q0 21 14.5 35.5t35.5 14.5h7v309q0 20 14.5 35
t35.5 15h172q77 0 131 -65.5t54 -163.5zM411 440q0 58 -28 96q-24 33 -57 33h-122v-259h122q38 0 61.5 39.5t23.5 90.5z" />
    <glyph glyph-name="trademark_sign" unicode="&#x2122;" vert-adv-y="824" 
d="M280 636q10 21 33 21q18 0 29 -13l39 -47l39 47q11 13 29 13q15 0 26 -11t11 -26v-144q0 -16 -11 -27t-26.5 -11t-26.5 11t-11 27v41q-12 -15 -29.5 -15t-28.5 13l-2 2v-41q0 -16 -11 -27t-26.5 -11t-26.5 11t-11 27v120q-11 -14 -30 -14h-30v-105q0 -15 -11 -26
t-26.5 -11t-26.5 11t-11 26v105h-32q-15 0 -26 11t-11 26.5t11 26.5t26 11h137q23 0 34 -21z" />
    <glyph glyph-name="left_arrow" unicode="&#x2190;" vert-adv-y="824" 
d="M213 438q21 0 35.5 -14.5t14.5 -35.5q0 -22 -16 -36l-11 -10h215q21 0 35.5 -15t14.5 -35.5t-14.5 -35t-35.5 -14.5h-215l11 -10q16 -15 16 -37q0 -21 -14.5 -35.5t-35.5 -14.5q-20 0 -34 13l-104 97q-16 15 -16 36.5t16 36.5l104 97q14 13 34 13z" />
    <glyph glyph-name="up_arrow" unicode="&#x2191;" vert-adv-y="824" 
d="M427 359q0 -21 -15 -35.5t-35 -14.5q-22 0 -37 16l-10 10v-214q0 -21 -14.5 -35.5t-35.5 -14.5t-35.5 14.5t-14.5 35.5v214l-10 -10q-15 -16 -37 -16q-20 0 -35 14.5t-15 35.5q0 19 14 34l96 104q15 16 37 16t37 -16l96 -104q14 -15 14 -34z" />
    <glyph glyph-name="right_arrow" unicode="&#x2192;" vert-adv-y="824" 
d="M297 388q0 21 14.5 35.5t35.5 14.5q20 0 34 -13l104 -97q16 -15 16 -36.5t-16 -36.5l-104 -97q-14 -13 -34 -13q-21 0 -35.5 14.5t-14.5 35.5q0 22 16 37l11 10h-215q-21 0 -35.5 14.5t-14.5 35t14.5 35.5t35.5 15h215l-11 10q-16 14 -16 36z" />
    <glyph glyph-name="down_arrow" unicode="&#x2193;" vert-adv-y="824" 
d="M183 275q22 0 37 -16l10 -11v215q0 20 14.5 35t35.5 15t35.5 -15t14.5 -35v-215l10 11q15 16 37 16q20 0 35 -15t15 -35t-14 -34l-96 -104q-15 -16 -37 -16t-37 16l-96 104q-14 14 -14 34t15 35t35 15z" />
    <glyph glyph-name="left_right_arrow" unicode="&#x2194;" vert-adv-y="824" 
d="M201 438q21 0 35.5 -14.5t14.5 -35.5q0 -22 -16 -36l-10 -10h110l-10 10q-16 14 -16 36q0 21 14.5 35.5t35.5 14.5q19 0 34 -13l104 -97q16 -15 16 -36.5t-16 -36.5l-104 -97q-15 -13 -34 -13q-21 0 -35.5 14.5t-14.5 35.5q0 22 16 37l10 10h-110l10 -10q16 -15 16 -37
q0 -21 -14.5 -35.5t-35.5 -14.5q-19 0 -34 13l-104 97q-16 15 -16 36.5t16 36.5l104 97q15 13 34 13z" />
    <glyph glyph-name="up_down_arrow" unicode="&#x2195;" vert-adv-y="824" 
d="M183 260q22 0 37 -16l10 -10v116l-10 -11q-15 -16 -37 -16q-20 0 -35 14.5t-15 35.5q0 20 14 34l96 104q15 16 37 16t37 -16l96 -104q14 -14 14 -34q0 -21 -15 -35.5t-35 -14.5q-22 0 -37 16l-10 11v-116l10 10q15 16 37 16q20 0 35 -14.5t15 -35.5q0 -19 -14 -34
l-96 -104q-15 -16 -37 -16t-37 16l-96 104q-14 15 -14 34q0 21 15 35.5t35 14.5z" />
    <glyph glyph-name="electric" unicode="&#x2301;" vert-adv-y="824" 
d="M409 572q21 0 35.5 -15t14.5 -35q0 -13 -7 -25l-94 -160l68 -48q21 -15 21 -41q0 -25 -19 -40l-247 -187q-13 -10 -30 -10q-21 0 -35.5 14.5t-14.5 35.5q0 14 7 25l94 161l-68 47q-21 15 -21 41q0 25 19 40l247 187q13 10 30 10z" />
    <glyph glyph-name="horizontal_line" unicode="&#x2500;" vert-adv-y="824" 
d="M52 233q-20 0 -35 15t-15 35.5t15 35t35 14.5h456q20 0 35 -14.5t15 -35t-15 -35.5t-35 -15h-456z" />
    <glyph glyph-name="vertical_line" unicode="&#x2502;" vert-adv-y="824" 
d="M230 773q0 21 15 35.5t35 14.5q21 0 35.5 -14.5t14.5 -35.5v-938q0 -20 -14.5 -35t-35.5 -15t-35.5 15t-14.5 35v938z" />
    <glyph glyph-name="top_l_corner" unicode="&#x250c;" vert-adv-y="824" 
d="M229 283q0 21 15 35.5t35 14.5v0h7h221q21 0 35.5 -15t14.5 -35.5t-14.5 -35t-35.5 -14.5h-178v-398q0 -20 -14.5 -35t-35 -15t-35.5 15t-15 35v441v7z" />
    <glyph glyph-name="top_r_corner" unicode="&#x2510;" vert-adv-y="824" 
d="M272 333h7q20 0 35 -15t15 -35v-7v-441q0 -20 -15 -35t-35.5 -15t-35 15t-14.5 35v398h-178q-21 0 -35.5 14.5t-14.5 35t14.5 35.5t35.5 15h221z" />
    <glyph glyph-name="bottom_l_corner" unicode="&#x2514;" vert-adv-y="824" 
d="M230 773q0 21 15 35.5t35 14.5q21 0 35.5 -14.5t14.5 -35.5v-440h178q21 0 35.5 -14.5t14.5 -35.5t-14.5 -35.5t-35.5 -14.5h-228q-21 0 -35.5 14.5t-14.5 35.5v490z" />
    <glyph glyph-name="bottom_r_corner" unicode="&#x2518;" vert-adv-y="824" 
d="M279.5 823q20.5 0 35.5 -14.5t15 -35.5v-490q0 -21 -14.5 -35.5t-35.5 -14.5h-228q-21 0 -35.5 14.5t-14.5 35.5t14.5 35.5t35.5 14.5h178v440q0 21 14.5 35.5t35 14.5z" />
    <glyph glyph-name="vertical_r_stem" unicode="&#x251c;" vert-adv-y="824" 
d="M280.5 -215q-20.5 0 -35.5 15t-15 35v1v937q0 21 14.5 35.5t35.5 14.5t35.5 -14.5t14.5 -35.5v-440h178q21 0 35.5 -15t14.5 -35.5t-14.5 -35t-35.5 -14.5h-178v-398q0 -20 -14.5 -35t-35 -15z" />
    <glyph glyph-name="vertical_l_stem" unicode="&#x2524;" vert-adv-y="824" 
d="M230 773q0 21 15 35.5t35 14.5q21 0 35.5 -14.5t14.5 -35.5v-938q0 -20 -14.5 -35t-35.5 -15t-35.5 15t-14.5 35v398h-178q-21 0 -35.5 14.5t-14.5 35.5t14.5 35.5t35.5 14.5h178v440z" />
    <glyph glyph-name="up_triangle" unicode="&#x25b2;" vert-adv-y="824" 
d="M119 118q-21 0 -35.5 15t-14.5 35q0 15 8 27l161 248q15 22 42 22t42 -22l161 -248q8 -12 8 -27q0 -20 -14.5 -35t-35.5 -15h-322z" />
    <glyph glyph-name="r_triangle" unicode="&#x25b6;" vert-adv-y="824" 
d="M155 503q15 0 27 -8l248 -161q22 -15 22 -42t-22 -42l-248 -161q-12 -8 -27 -8q-20 0 -34.5 14t-14.5 36v322q0 20 14 34.5t34 15.5h1z" />
    <glyph glyph-name="down_triangle" unicode="&#x25bc;" vert-adv-y="824" 
d="M491 416q0 -15 -8 -28l-161 -247q-15 -23 -42 -23t-42 23l-161 247q-8 13 -8 28q0 20 14.5 34.5t35.5 14.5h322q22 0 36 -14.5t14 -34.5z" />
    <glyph glyph-name="l_triangle" unicode="&#x25c0;" vert-adv-y="824" 
d="M403 503q20 0 34.5 -14.5t14.5 -35.5v-322q0 -22 -14.5 -36t-34.5 -14q-15 0 -27 8l-248 161q-22 15 -22 42t22 42l248 161q12 8 27 8z" />
    <glyph glyph-name="open_bullet" unicode="&#x25e6;" vert-adv-y="824" 
d="M301 292q0 9 -6 14.5t-15 5.5t-15 -5.5t-6 -14.5t6 -15t15 -6t15 6t6 15zM401 291.5q0 -49.5 -35.5 -85t-85.5 -35.5t-85.5 35.5t-35.5 85t35.5 85t85.5 35.5t85.5 -35.5t35.5 -85z" />
  </font>
</defs>
</svg>
